<?xml version="1.0" encoding="UTF-8" standalone="no"?>
<svg width="56px" height="53px" viewBox="0 0 56 53" version="1.1" xmlns="http://www.w3.org/2000/svg" xmlns:xlink="http://www.w3.org/1999/xlink" xmlns:sketch="http://www.bohemiancoding.com/sketch/ns">
    <!-- Generator: Sketch 3.5.2 (25235) - http://www.bohemiancoding.com/sketch -->
    <title>criminal-law-white</title>
    <desc>Created with Sketch.</desc>
    <defs></defs>
    <g id="Svgs" stroke="none" stroke-width="1" fill="none" fill-rule="evenodd" sketch:type="MSPage">
        <g id="icons" sketch:type="MSArtboardGroup" transform="translate(-52.000000, -591.000000)">
            <g id="white" sketch:type="MSLayerGroup" transform="translate(52.000000, 499.000000)">
                <g id="criminal-law-white" transform="translate(0.000000, 92.000000)" sketch:type="MSShapeGroup">
                    <path d="M42.0635868,36.4983188 C45.7147944,36.4983188 49.1472553,35.0861994 51.7293967,32.521735 C57.0589032,27.2287138 57.0589032,18.6154785 51.7293967,13.321995 C49.1477207,10.7579928 45.7147944,9.34633562 42.0635868,9.34633562 C40.9912627,9.34633562 39.8789127,9.50719243 38.5622439,9.85340437 L38.3039367,9.92181474 L34.7313849,6.37372017 C34.2850486,5.9309017 33.6916401,5.68684308 33.0614635,5.68684308 C32.4308216,5.68684308 31.8378785,5.9309017 31.3915422,6.37372017 L28.7847336,8.96222064 L26.092288,6.28774498 L26.1304523,6.0543177 C26.3989987,4.4120066 25.8623713,2.73872594 24.694171,1.57852305 C23.7158615,0.606448681 22.4126899,0.0716459951 21.025743,0.0716459951 C19.6378652,0.0716459951 18.3346936,0.606448681 17.3563841,1.57852305 C16.9873072,1.94553544 16.9873072,2.54320171 17.3568495,2.91067633 C17.7152217,3.26567068 18.3388824,3.26567068 18.69772,2.9102141 C19.3181227,2.29359631 20.1451713,1.95431785 21.025743,1.95431785 C21.9058492,1.95431785 22.7328978,2.29359631 23.3537659,2.9102141 C23.9746341,3.52683189 24.3167167,4.34775632 24.3167167,5.22229969 C24.3167167,6.09638083 23.9746341,6.9177675 23.3537659,7.53438529 C22.7328978,8.15100308 21.9058492,8.49074377 21.025743,8.49074377 C20.1451713,8.49074377 19.3181227,8.15100308 18.69772,7.53438529 C17.718945,6.56231092 16.4157734,6.02750823 15.0288265,6.02750823 C13.6409487,6.02750823 12.3382426,6.56231092 11.3594676,7.53438529 C10.3667301,8.52078886 9.75237776,9.85802669 9.67372205,11.2049714 C9.59227382,12.5921303 10.0716548,13.8771359 11.0234355,14.8219386 C11.166319,14.9638439 11.2784848,15.0937311 11.3822731,15.214836 C11.5661134,15.4293117 11.6550083,15.571217 11.8923717,15.7011043 L12.1008792,15.8323782 L12.1008792,19.8759857 L9.5461974,19.8759857 C8.16809343,19.8759857 6.98127644,20.8605404 6.98127644,22.0706643 L6.98127644,27.1099201 L6.7657877,27.2402696 C2.41272914,29.5176877 0.0316484532,33.6648353 0.0316484532,38.9167178 C0.0316484532,46.4025687 6.18773802,52.4924783 13.7438062,52.4924783 C21.2053945,52.4924783 27.2800358,46.4025687 27.2800358,38.9167178 C27.2800358,34.2098071 24.5768856,29.731239 20.2740922,27.2301005 L20.0129925,27.0960531 L20.0129925,22.0706643 C20.0129925,20.7167862 19.2925247,19.8759857 18.027052,19.8759857 L13.9625529,19.8759857 L13.9625529,16.3260422 L14.4470535,16.3126375 C15.571039,16.2793568 17.2744704,15.8688946 18.3277123,14.8219386 C18.6926004,14.4595485 18.8722519,13.847553 18.5129489,13.4907098 C18.1494571,13.1287819 17.627723,13.1297064 17.2637658,13.4907098 C16.643363,14.1073275 15.8265537,14.446606 14.96041,14.446606 C14.0938009,14.446606 13.2765261,14.1073275 12.6556579,13.4907098 C12.0352552,12.8745542 11.6973614,12.0517808 11.7038772,11.1749263 C11.7108585,10.3031563 12.0566644,9.48315636 12.677998,8.86653857 C13.2988662,8.24992078 14.1277764,7.90971786 15.011606,7.90971786 C15.895901,7.90971786 16.7243458,8.24992078 17.345214,8.86653857 C18.323989,9.83815071 19.6280914,10.3729534 21.0173654,10.3729534 C22.406174,10.3729534 23.7102765,9.83815071 24.6890514,8.86653857 C24.7444362,8.81153293 24.7900472,8.75051828 24.8365891,8.68996586 C24.8770805,8.63819585 24.9175719,8.5859636 24.9608558,8.53604252 L25.2875795,8.15423871 L27.4433977,10.2934494 L25.3936949,12.3300446 C24.9473586,12.7728631 24.7020831,13.361747 24.7020831,13.9885339 C24.7020831,14.6148585 24.9478241,15.2037424 25.3936949,15.6470231 L28.9774168,19.205749 L28.9094657,19.4622879 C27.6691256,24.1493227 29.0058073,29.1534487 32.3973114,32.521735 C34.9794529,35.0861994 38.4119138,36.4983188 42.0635868,36.4983188 L42.0635868,36.4983188 Z M13.7866247,50.6093442 C7.29450304,50.6093442 2.01293471,45.3643952 2.01293471,38.9167178 C2.01293471,32.4690405 7.29450304,27.2240914 13.7866247,27.2240914 C20.2787464,27.2240914 25.5603147,32.4690405 25.5603147,38.9167178 C25.5603147,45.3643952 20.2787464,50.6093442 13.7866247,50.6093442 Z M17.6859003,21.7249146 L17.6859003,26.2205853 L17.117159,26.0370791 C15.7339354,25.6164478 14.7374746,25.3404951 13.3137596,25.3404951 C11.9268127,25.3404951 10.4253728,25.6058164 9.52758066,26.0148919 L8.84295015,26.3162673 L8.84295015,21.7249146 L17.6859003,21.7249146 L17.6859003,21.7249146 Z M29.69835,17.2583646 L26.40598,13.9880716 L33.0614635,7.37861303 L36.345456,10.6396614 L35.7832305,10.9308677 C34.4074536,11.6431675 33.3006886,12.4257267 32.3973114,13.321995 C31.4953305,14.2187255 30.7078425,15.3220738 29.9906327,16.6972147 L29.69835,17.2583646 L29.69835,17.2583646 Z M33.7381819,14.6541483 C35.9614858,12.4456027 38.9187545,11.2294697 42.0635868,11.2294697 C45.2088845,11.2294697 48.1652224,12.4456027 50.3880608,14.6541483 C52.6122955,16.8622316 53.8372768,19.798793 53.8372768,22.9225583 C53.8372768,26.0458615 52.6122955,28.9819606 50.3880608,31.1905062 C48.1652224,33.3990517 45.2088845,34.6151847 42.0635868,34.6151847 C38.9187545,34.6151847 35.9614858,33.3990517 33.7381819,31.1905062 C31.5144127,28.9819606 30.2898968,26.0458615 30.2898968,22.9225583 C30.2898968,19.798793 31.5144127,16.8622316 33.7381819,14.6541483 L33.7381819,14.6541483 Z" id="outline" fill="#FFFFFF"></path>
                    <path d="M17.6859003,26.2205853 L17.117159,26.0370791 C15.7339354,25.6164478 14.7374746,25.3404951 13.3137596,25.3404951 C11.9268127,25.3404951 10.4253728,25.6058164 9.52758066,26.0148919 L8.84295015,26.3162673 L8.84295015,21.7249146 L17.6859003,21.7249146 L17.6859003,26.2205853 Z" id="fill" fill="#919CB0"></path>
                    <path d="M29.69835,17.2583646 L26.40598,13.9880716 L33.0614635,7.37861303 L36.345456,10.6396614 L35.7832305,10.9308677 C34.4074536,11.6431675 33.3006886,12.4257267 32.3973114,13.321995 C31.4953305,14.2187255 30.7078425,15.3220738 29.9906327,16.6972147 L29.69835,17.2583646" id="fill" fill="#919CB0"></path>
                </g>
            </g>
        </g>
    </g>
</svg>