<?xml version="1.0" encoding="UTF-8" standalone="no"?>
<svg width="53px" height="52px" viewBox="0 0 53 52" version="1.1" xmlns="http://www.w3.org/2000/svg" xmlns:xlink="http://www.w3.org/1999/xlink" xmlns:sketch="http://www.bohemiancoding.com/sketch/ns">
    <!-- Generator: Sketch 3.5.2 (25235) - http://www.bohemiancoding.com/sketch -->
    <title>environmental-white</title>
    <desc>Created with Sketch.</desc>
    <defs></defs>
    <g id="Svgs" stroke="none" stroke-width="1" fill="none" fill-rule="evenodd" sketch:type="MSPage">
        <g id="icons" sketch:type="MSArtboardGroup" transform="translate(-250.000000, -508.000000)">
            <g id="white" sketch:type="MSLayerGroup" transform="translate(52.000000, 499.000000)">
                <g id="environmental-white" transform="translate(198.000000, 9.000000)" sketch:type="MSShapeGroup">
                    <path d="M49.9607843,14.5722353 L49.9495686,18.3529412 L47.9215686,18.3529412 L47.9215686,11.8019608 L49.6630588,13.2120784 C49.7527843,13.3650196 49.9607843,13.8044706 49.9607843,14.5722353 L49.9607843,14.5722353 Z M7.1372549,49.9607843 L7.13521569,22.4313725 L28.5490196,22.4313725 L28.5490196,49.9607843 L7.1372549,49.9607843 Z M7.59709804,2.51129412 C7.89380392,2.19317647 8.34752941,2.03921569 8.98478431,2.03921569 L26.6963922,2.03921569 C27.3336471,2.03921569 27.7883922,2.19317647 28.0861176,2.51231373 C28.5184314,2.97215686 28.5694118,3.74501961 28.5490196,4.07843137 L28.5490196,20.3921569 L7.13521569,20.3921569 L7.13419608,4.00196078 C7.11686275,3.74298039 7.16580392,2.97113725 7.59709804,2.51129412 L7.59709804,2.51129412 Z M52.5944314,5.52321569 C52.5944314,4.95937255 52.1386667,4.50360784 51.5748235,4.50360784 C49.6141176,4.50360784 48.1101961,5.08070588 47.106902,6.22164706 C45.7396078,7.7734902 45.8436078,9.81984314 45.8823529,10.2480784 L45.8823529,36.7374902 C45.8905098,36.8700392 46.0934118,38.9357647 44.8729412,40.2918431 C44.1123137,41.137098 42.9132549,41.5653333 41.3104314,41.5653333 C39.9390588,41.5653333 38.8572549,41.1738039 38.092549,40.4029804 C36.7018039,38.9989804 36.7058824,36.7415686 36.7058824,36.7058824 L36.7058824,27.8159216 C36.7058824,25.2098039 35.9595294,23.2287059 34.4882353,21.9297255 C33.181098,20.7755294 31.6251765,20.464549 30.5861961,20.3941961 L30.5851765,4.16101961 C30.599451,3.9774902 30.6993725,2.33796078 29.593098,1.13686275 C29.114902,0.617882353 28.2237647,0 26.6963922,0 L8.98478431,0 C7.45639216,0 6.56627451,0.617882353 6.08909804,1.13788235 C4.98486275,2.33898039 5.08580392,3.97952941 5.09803922,4.07843137 L5.09803922,49.9607843 L1.01960784,49.9607843 C0.456784314,49.9607843 0,50.416549 0,50.9803922 C0,51.5442353 0.456784314,52 1.01960784,52 L34.6666667,52 C35.2294902,52 35.6862745,51.5442353 35.6862745,50.9803922 C35.6862745,50.416549 35.2294902,49.9607843 34.6666667,49.9607843 L30.5882353,49.9607843 L30.5861961,22.4374902 C31.3029804,22.5047843 32.3164706,22.7321569 33.1382745,23.4581176 C34.1527843,24.3533333 34.6666667,25.8195294 34.6666667,27.8159216 L34.6666667,36.688549 C34.6646275,36.8149804 34.6391373,39.8003922 36.6294118,41.8232941 C37.7917647,43.0050196 39.3670588,43.604549 41.3104314,43.604549 C43.5260392,43.604549 45.2410196,42.9428235 46.4043922,41.6377255 C48.0989804,39.7392157 47.9613333,37.151451 47.9215686,36.6895686 L47.9215686,20.3921569 L49.9607843,20.3921569 C50.7193725,20.3921569 51.1863529,20.072 51.4453333,19.8018039 C52.0071373,19.216549 52.005098,18.4569412 52,18.3529412 L52,14.5722353 C52,12.844 51.2750588,11.9457255 51.1924706,11.8488627 L47.9429804,9.19788235 C48.0133333,8.69419608 48.1958431,8.06305882 48.6465098,7.55733333 C49.2470588,6.88439216 50.2330196,6.54282353 51.5748235,6.54282353 C52.1386667,6.54282353 52.5944314,6.08705882 52.5944314,5.52321569 Z" id="outline" fill="#FFFFFF"></path>
                    <path d="M7.59709804,2.51129412 C7.89380392,2.19317647 8.34752941,2.03921569 8.98478431,2.03921569 L26.6963922,2.03921569 C27.3336471,2.03921569 27.7883922,2.19317647 28.0861176,2.51231373 C28.5184314,2.97215686 28.5694118,3.74501961 28.5490196,4.07843137 L28.5490196,20.3921569 L7.13521569,20.3921569 L7.13419608,4.00196078 C7.11686275,3.74298039 7.16580392,2.97113725 7.59709804,2.51129412 L7.59709804,2.51129412 Z" id="fill" fill="#75899B"></path>
                </g>
            </g>
        </g>
    </g>
</svg>