<?xml version="1.0" encoding="UTF-8" standalone="no"?>
<svg width="47px" height="54px" viewBox="0 0 47 54" version="1.1" xmlns="http://www.w3.org/2000/svg" xmlns:xlink="http://www.w3.org/1999/xlink" xmlns:sketch="http://www.bohemiancoding.com/sketch/ns">
    <!-- Generator: Sketch 3.5.2 (25235) - http://www.bohemiancoding.com/sketch -->
    <title>maritime-law-white</title>
    <desc>Created with Sketch.</desc>
    <defs></defs>
    <g id="Svgs" stroke="none" stroke-width="1" fill="none" fill-rule="evenodd" sketch:type="MSPage">
        <g id="icons" sketch:type="MSArtboardGroup" transform="translate(-156.000000, -590.000000)">
            <g id="white" sketch:type="MSLayerGroup" transform="translate(52.000000, 499.000000)">
                <g id="maritime-law-white" transform="translate(104.000000, 91.000000)" sketch:type="MSShapeGroup">
                    <path d="M44.8092348,37.7141877 L40.5619436,35.2787288 C40.3737894,35.1711258 40.1758262,35.1038186 39.9756337,35.0551094 C41.3511211,32.4491684 42.1340566,29.4880932 42.1340566,26.3472369 C42.1340566,23.6372354 41.549976,21.0618483 40.5071024,18.7317784 C40.6783138,18.6826264 40.8464042,18.6153192 41.0078066,18.5227718 L45.2550978,16.0873129 C46.3216022,15.4757913 46.686764,14.122119 46.0710272,13.0629158 C45.4557362,12.0032698 44.0922871,11.640165 43.0257827,12.2525722 L38.7784914,14.6880311 C38.6059424,14.7867778 38.4592535,14.9107648 38.3246029,15.0440509 C35.1870647,10.9095273 30.3753108,8.09856497 24.8987752,7.60837352 C24.9402405,7.43966264 24.9683298,7.26608085 24.9683298,7.08497127 L24.9683298,2.21405352 C24.9683298,0.991010356 23.9704884,0 22.7390147,0 C21.507541,0 20.5096995,0.991010356 20.5096995,2.21405352 L20.5096995,7.08497127 C20.5096995,7.30239132 20.5511648,7.50785549 20.6095728,7.70623469 C15.6368624,8.38063539 11.2745385,10.9768345 8.30509071,14.7154853 C8.13031241,14.4865522 7.90782675,14.2872874 7.64164652,14.1345177 L3.39390941,11.6990588 C2.32740503,11.0862088 0.963955877,11.450642 0.348664892,12.5094024 C-0.267071957,13.5686056 0.0985357303,14.9222779 1.16459424,15.5337995 L5.41233136,17.9692584 C5.63035838,18.0945738 5.86176129,18.1742797 6.09583939,18.220332 C4.9040475,20.6819168 4.23569881,23.4384134 4.23569881,26.3472369 C4.23569881,29.1015195 4.83939736,31.7172023 5.914819,34.0773834 C5.74316173,34.1260925 5.57373377,34.1894145 5.41233136,34.2824047 L1.16459424,36.7178636 C0.0985357303,37.3293852 -0.267071957,38.6830575 0.348664892,39.7422607 C0.76153406,40.4529719 1.51102982,40.8497303 2.28148114,40.8497303 C2.65957299,40.8497303 3.0430152,40.7540832 3.39390941,40.5526043 L7.64164652,38.1171454 C7.82311278,38.0130849 7.9760438,37.8815701 8.11559893,37.7394279 C10.9597592,41.4413254 15.1517634,44.0654216 19.9581669,44.8881639 C19.7459361,45.2273569 19.6179734,45.6236725 19.6179734,46.0523132 L19.6179734,50.923231 C19.6179734,52.1462742 20.6158149,53.1372845 21.8472886,53.1372845 C23.0787623,53.1372845 24.0766038,52.1462742 24.0766038,50.923231 L24.0766038,46.0523132 C24.0766038,45.729947 24.0034822,45.4257361 23.8790865,45.1494222 C29.3890618,44.951043 34.3051476,42.4066527 37.64377,38.4922061 C37.8225611,38.7375232 38.0512888,38.9522864 38.3326284,39.1134695 L42.5799196,41.5489284 C42.9308139,41.7504073 43.3147019,41.8460544 43.6923479,41.8460544 C44.4632451,41.8460544 45.212295,41.4488532 45.6251642,40.7385848 C46.240901,39.6793816 45.8757392,38.3257093 44.8092348,37.7141877 L44.8092348,37.7141877 Z M37.8225611,35.2415327 L29.9000209,30.6991805 C30.7257592,29.446469 31.2104123,27.9528685 31.2104123,26.3472369 C31.2104123,25.1627183 30.9415569,24.0415216 30.4729549,23.0296991 L38.4061958,18.4807047 C39.645695,20.8360149 40.3506045,23.5105915 40.3506045,26.3472369 C40.3506045,29.6045524 39.424547,32.6506473 37.8225611,35.2415327 L37.8225611,35.2415327 Z M23.1848777,32.1037761 C19.9889315,32.1037761 17.3886583,29.521304 17.3886583,26.3472369 C17.3886583,23.1731698 19.9889315,20.5906977 23.1848777,20.5906977 C26.3808239,20.5906977 28.9810971,23.1731698 28.9810971,26.3472369 C28.9810971,29.521304 26.3808239,32.1037761 23.1848777,32.1037761 L23.1848777,32.1037761 Z M37.500648,16.9547791 L29.5509101,21.5126296 C28.167843,19.7210175 26.0415222,18.531628 23.6307407,18.3992276 L23.6307407,9.31009506 C29.4180429,9.45799383 34.5013274,12.461136 37.500648,16.9547791 L37.500648,16.9547791 Z M21.8472886,9.35570456 L21.8472886,18.4966459 C19.9826894,18.8092703 18.337009,19.7590992 17.1438795,21.1167569 L9.15847256,16.5380942 C12.0271553,12.5040887 16.6101814,9.75910511 21.8472886,9.35570456 L21.8472886,9.35570456 Z M8.20477153,18.0365656 L16.1183945,22.5740469 C15.5075621,23.6983433 15.1593431,24.9829371 15.1593431,26.3472369 C15.1593431,27.5747082 15.4487082,28.7339866 15.9498583,29.7737061 L8.01929251,34.3213721 C6.7445701,31.9403789 6.01915094,29.2268349 6.01915094,26.3472369 C6.01915094,23.3312532 6.81546232,20.4972647 8.20477153,18.0365656 L8.20477153,18.0365656 Z M8.93509518,35.841984 L16.8924127,31.2788197 C18.1002557,32.7954464 19.8484846,33.8626202 21.8472886,34.1978279 L21.8472886,43.3387692 C16.4741932,42.925184 11.7859434,40.0482429 8.93509518,35.841984 L8.93509518,35.841984 Z M23.6307407,43.3843787 L23.6307407,34.2952462 C25.6112643,34.1863148 27.4014044,33.367115 28.7443439,32.0820783 L36.8064392,36.7045793 C33.750494,40.6588789 28.9931354,43.2471074 23.6307407,43.3843787 L23.6307407,43.3843787 Z" id="outline" fill="#FFFFFF"></path>
                    <path d="M23.2776172,35.7193255 C18.0966888,35.7193255 13.8819455,31.5334359 13.8819455,26.3879755 C13.8819455,21.2429579 18.0966888,17.0570683 23.2776172,17.0570683 C28.4585457,17.0570683 32.6732889,21.2429579 32.6732889,26.3879755 C32.6732889,31.5334359 28.4585457,35.7193255 23.2776172,35.7193255 L23.2776172,35.7193255 Z M23.2776172,21.9279861 C20.8008481,21.9279861 18.7864389,23.9286048 18.7864389,26.3879755 C18.7864389,28.8477889 20.8008481,30.8484077 23.2776172,30.8484077 C25.7543864,30.8484077 27.7687956,28.8477889 27.7687956,26.3879755 C27.7687956,23.9286048 25.7543864,21.9279861 23.2776172,21.9279861 L23.2776172,21.9279861 Z" id="fill" fill="#75899B"></path>
                    <path d="M23.2776172,17.7212844 C28.0898169,17.7212844 32.0044944,21.6091624 32.0044944,26.3879755 C32.0044944,31.1672314 28.0898169,35.0551094 23.2776172,35.0551094 C18.4654175,35.0551094 14.5507401,31.1672314 14.5507401,26.3879755 C14.5507401,21.6091624 18.4654175,17.7212844 23.2776172,17.7212844 L23.2776172,17.7212844 Z M23.2776172,31.5126238 C26.1231151,31.5126238 28.4375901,29.2139934 28.4375901,26.3879755 C28.4375901,23.5624004 26.1231151,21.26377 23.2776172,21.26377 C20.4321193,21.26377 18.1176443,23.5624004 18.1176443,26.3879755 C18.1176443,29.2139934 20.4321193,31.5126238 23.2776172,31.5126238 L23.2776172,31.5126238 Z M23.2776172,16.3928523 C17.7279601,16.3928523 13.213151,20.8763107 13.213151,26.3879755 C13.213151,31.8996403 17.7279601,36.3835415 23.2776172,36.3835415 C28.8272744,36.3835415 33.3420835,31.8996403 33.3420835,26.3879755 C33.3420835,20.8763107 28.8272744,16.3928523 23.2776172,16.3928523 L23.2776172,16.3928523 Z M23.2776172,30.1841917 C21.1700227,30.1841917 19.4552334,28.4811417 19.4552334,26.3879755 C19.4552334,24.2948093 21.1700227,22.5922021 23.2776172,22.5922021 C25.3852118,22.5922021 27.100001,24.2948093 27.100001,26.3879755 C27.100001,28.4811417 25.3852118,30.1841917 23.2776172,30.1841917 L23.2776172,30.1841917 Z" id="outline" fill="#FFFFFF"></path>
                </g>
            </g>
        </g>
    </g>
</svg>