<svg xmlns="http://www.w3.org/2000/svg"><symbol id="arrow" viewBox="0 0 27 28"><title>forward-arrow</title><path d="M25.18 13.276H.12v1.03h25.06a1.064 1.064 0 0 1-.18.238L12.675 26.828l.73.727L25.732 15.27c.397-.394.615-.92.615-1.48 0-.558-.218-1.084-.614-1.48L13.406.028l-.73.728L25 13.04c.072.07.133.15.18.236z" fill="currentColor" fill-rule="evenodd"/></symbol><symbol id="class-action-white" viewBox="0 0 57 41"><title>class-action-white</title><g fill="none" fill-rule="evenodd"><path d="M.953 27.503l.467.858 2.16.482.91.934.945 9.672 1.436.45 4.154-.264.982-2.663.377-8.21 3.285-.544-2.492-12.468H3.624l-1.31 5.493-1.36 6.263z" fill="#75899B"/><path d="M8.462.392c-3.36 0-6.092 2.714-6.092 6.05s2.733 6.05 6.092 6.05c3.36 0 6.092-2.714 6.092-6.05S11.82.392 8.462.392zm0 10.38c-2.403 0-4.36-1.942-4.36-4.33 0-2.387 1.957-4.33 4.36-4.33 2.404 0 4.36 1.943 4.36 4.33 0 2.388-1.956 4.33-4.36 4.33zM10.42 40.55c1.36 0 2.115-.815 2.205-1.935l.745-8.918h1.12c.652 0 1.263-.347 1.68-.842.415-.496.588-1.176.472-1.81l-2.01-10.92c-.19-1.034-1.093-1.727-2.15-1.727h-8.04c-1.056 0-1.96.677-2.15 1.71L.282 27.05a2.25 2.25 0 0 0 .473 1.823c.416.495 1.027.824 1.677.824h1.123l.664 8.918c.09 1.12 1.217 1.936 2.123 1.936M9.513 16.2h3.158l2.093 11.25H11.56l-.88 11.248H6.244l-.88-11.25H2.162L4.255 16.2H7.25" fill="#FFF"/><path d="M22.022 21.24l-1.36 6.263.466.858 2.16.482.91.934.945 9.672 1.435.45 4.154-.264.982-2.663.377-8.21 3.286-.544-2.492-12.468h-9.552l-1.31 5.493" fill="#75899B"/><path d="M28.17.392c-3.36 0-6.092 2.714-6.092 6.05s2.733 6.05 6.092 6.05c3.36 0 6.092-2.714 6.092-6.05S31.53.392 28.17.392zm0 10.38c-2.403 0-4.36-1.942-4.36-4.33 0-2.387 1.957-4.33 4.36-4.33 2.404 0 4.36 1.943 4.36 4.33 0 2.388-1.956 4.33-4.36 4.33zM30.128 40.55c1.36 0 2.115-.815 2.205-1.935l.744-8.918H34.2c.65 0 1.26-.347 1.677-.842.416-.496.59-1.176.472-1.81l-2.01-10.92c-.19-1.034-1.093-1.727-2.15-1.727h-8.04c-1.056 0-1.96.677-2.15 1.71L19.99 27.05a2.25 2.25 0 0 0 .473 1.823c.416.495 1.027.824 1.677.824h1.123l.664 8.918c.09 1.12 1.218 1.936 2.124 1.936m3.4-24.352h2.93l2.09 11.25H31.27l-.88 11.248h-4.437l-.878-11.25H21.87L23.96 16.2h3.22" fill="#FFF"/><path d="M41.73 21.24l-1.36 6.263.466.858 2.16.482.91.934.945 9.672 1.436.45 4.154-.264.982-2.663.377-8.21 3.284-.544-2.492-12.468H43.04l-1.31 5.493" fill="#75899B"/><path d="M47.878.392c-3.36 0-6.092 2.714-6.092 6.05s2.733 6.05 6.092 6.05c3.36 0 6.092-2.714 6.092-6.05S51.237.392 47.878.392zm0 10.38c-2.404 0-4.36-1.942-4.36-4.33 0-2.387 1.956-4.33 4.36-4.33 2.404 0 4.36 1.943 4.36 4.33 0 2.388-1.956 4.33-4.36 4.33zM49.836 40.55c1.36 0 2.115-.815 2.205-1.935l.745-8.918h1.122c.65 0 1.26-.347 1.678-.842.416-.496.59-1.176.472-1.81l-2.01-10.92c-.188-1.034-1.092-1.727-2.15-1.727h-8.04c-1.055 0-1.96.677-2.15 1.71l-2.01 10.942a2.25 2.25 0 0 0 .474 1.823c.416.495 1.028.824 1.678.824h1.122l.665 8.918c.09 1.12 1.217 1.936 2.123 1.936M48.93 16.2h3.157l2.092 11.25h-3.204l-.88 11.248H45.66l-.88-11.25h-3.2l2.09-11.248h2.997" fill="#FFF"/></g></symbol><symbol id="class-action" viewBox="0 0 57 41"><title>class-action</title><g fill="currentColor" fill-rule="evenodd"><path d="M8.462.392c-3.36 0-6.092 2.714-6.092 6.05s2.733 6.05 6.092 6.05c3.36 0 6.092-2.714 6.092-6.05S11.82.392 8.462.392zm0 10.38c-2.403 0-4.36-1.942-4.36-4.33 0-2.387 1.957-4.33 4.36-4.33 2.404 0 4.36 1.943 4.36 4.33 0 2.388-1.956 4.33-4.36 4.33zM10.42 40.55c1.36 0 2.115-.815 2.205-1.935l.745-8.918h1.12c.652 0 1.263-.347 1.68-.842.415-.496.588-1.176.472-1.81l-2.01-10.92c-.19-1.034-1.093-1.727-2.15-1.727h-8.04c-1.056 0-1.96.677-2.15 1.71L.282 27.05a2.25 2.25 0 0 0 .473 1.823c.416.495 1.027.824 1.677.824h1.123l.664 8.918c.09 1.12 1.217 1.936 2.123 1.936M9.513 16.2h3.158l2.093 11.25H11.56l-.88 11.248H6.244l-.88-11.25H2.162L4.255 16.2H7.25M28.17.392c-3.36 0-6.092 2.714-6.092 6.05s2.733 6.05 6.092 6.05c3.36 0 6.092-2.714 6.092-6.05S31.53.392 28.17.392zm0 10.38c-2.403 0-4.36-1.942-4.36-4.33 0-2.387 1.957-4.33 4.36-4.33 2.404 0 4.36 1.943 4.36 4.33 0 2.388-1.956 4.33-4.36 4.33zM30.128 40.55c1.36 0 2.115-.815 2.205-1.935l.744-8.918H34.2c.65 0 1.26-.347 1.677-.842.416-.496.59-1.176.472-1.81l-2.01-10.92c-.19-1.034-1.093-1.727-2.15-1.727h-8.04c-1.056 0-1.96.677-2.15 1.71L19.99 27.05a2.25 2.25 0 0 0 .473 1.823c.416.495 1.027.824 1.677.824h1.123l.664 8.918c.09 1.12 1.218 1.936 2.124 1.936m3.4-24.352h2.93l2.09 11.25H31.27l-.88 11.248h-4.437l-.878-11.25H21.87L23.96 16.2h3.22M47.878.392c-3.36 0-6.092 2.714-6.092 6.05s2.733 6.05 6.092 6.05c3.36 0 6.092-2.714 6.092-6.05S51.237.392 47.878.392zm0 10.38c-2.404 0-4.36-1.942-4.36-4.33 0-2.387 1.956-4.33 4.36-4.33 2.404 0 4.36 1.943 4.36 4.33 0 2.388-1.956 4.33-4.36 4.33zM49.836 40.55c1.36 0 2.115-.815 2.205-1.935l.745-8.918h1.122c.65 0 1.26-.347 1.678-.842.416-.496.59-1.176.472-1.81l-2.01-10.92c-.188-1.034-1.092-1.727-2.15-1.727h-8.04c-1.055 0-1.96.677-2.15 1.71l-2.01 10.942a2.25 2.25 0 0 0 .474 1.823c.416.495 1.028.824 1.678.824h1.122l.665 8.918c.09 1.12 1.217 1.936 2.123 1.936M48.93 16.2h3.157l2.092 11.25h-3.204l-.88 11.248H45.66l-.88-11.25h-3.2l2.09-11.248h2.997"/></g></symbol><symbol id="criminal-law-white" viewBox="0 0 56 53"><title>criminal-law-white</title><g fill="none" fill-rule="evenodd"><path d="M42.064 36.498c3.65 0 7.083-1.412 9.665-3.976 5.33-5.293 5.33-13.907 0-19.2a13.627 13.627 0 0 0-9.666-3.976c-1.073 0-2.185.16-3.502.507l-.258.07-3.573-3.55a2.357 2.357 0 0 0-1.67-.686c-.63 0-1.222.244-1.668.687l-2.607 2.588-2.693-2.674.038-.234a5.145 5.145 0 0 0-1.436-4.475A5.17 5.17 0 0 0 21.026.07a5.17 5.17 0 0 0-3.67 1.507.94.94 0 0 0 0 1.33.977.977 0 0 0 1.342 0 3.28 3.28 0 0 1 2.328-.956c.88 0 1.707.34 2.328.956.62.617.963 1.438.963 2.312 0 .874-.342 1.696-.963 2.312a3.282 3.282 0 0 1-2.328.957 3.28 3.28 0 0 1-2.328-.956 5.172 5.172 0 0 0-3.67-1.506 5.17 5.17 0 0 0-3.67 1.506c-.99.987-1.606 2.324-1.684 3.67-.082 1.388.398 2.673 1.35 3.618.142.142.254.272.358.393.184.214.273.356.51.486l.21.132v4.044H9.545c-1.378 0-2.565.985-2.565 2.195v5.04l-.214.13C2.413 29.518.032 33.665.032 38.917c0 7.486 6.156 13.575 13.712 13.575 7.46 0 13.536-6.09 13.536-13.575 0-4.707-2.703-9.186-7.006-11.687l-.26-.134V22.07c0-1.353-.72-2.194-1.987-2.194h-4.064v-3.55l.484-.013c1.124-.034 2.827-.444 3.88-1.49.366-.363.545-.975.186-1.332-.364-.36-.885-.36-1.25 0a3.25 3.25 0 0 1-4.608 0 3.205 3.205 0 0 1-.95-2.315 3.27 3.27 0 0 1 .973-2.308 3.29 3.29 0 0 1 2.334-.957c.884 0 1.712.34 2.333.957a5.177 5.177 0 0 0 3.672 1.506c1.39 0 2.693-.535 3.672-1.506.054-.055.1-.116.147-.177.04-.052.08-.104.124-.154l.328-.382 2.155 2.14-2.05 2.036a2.32 2.32 0 0 0-.69 1.66c0 .625.245 1.214.69 1.657l3.584 3.56-.068.255c-1.24 4.687.096 9.69 3.487 13.06a13.627 13.627 0 0 0 9.667 3.976zm-28.277 14.11c-6.492 0-11.774-5.244-11.774-11.69 0-6.45 5.282-11.694 11.774-11.694 6.492 0 11.773 5.245 11.773 11.693 0 6.447-5.28 11.692-11.773 11.692zm3.9-28.883v4.496l-.57-.183c-1.383-.42-2.38-.697-3.803-.697-1.387 0-2.89.266-3.786.675l-.685.3v-4.59h8.843zm12.01-4.467l-3.29-3.27 6.654-6.61 3.285 3.262-.562.29c-1.376.713-2.482 1.496-3.386 2.392-.902.897-1.69 2-2.406 3.375l-.292.56zm4.04-2.604a11.737 11.737 0 0 1 8.327-3.425c3.145 0 6.1 1.216 8.324 3.424a11.574 11.574 0 0 1 3.45 8.27c0 3.122-1.226 6.058-3.45 8.267a11.733 11.733 0 0 1-8.324 3.425 11.737 11.737 0 0 1-8.326-3.424 11.576 11.576 0 0 1-3.448-8.267c0-3.124 1.224-6.06 3.448-8.27z" fill="#FFF"/><path d="M17.686 26.22l-.57-.183c-1.382-.42-2.38-.697-3.802-.697-1.387 0-2.89.266-3.786.675l-.685.3v-4.59h8.843v4.496zM29.698 17.258l-3.292-3.27 6.655-6.61 3.285 3.262-.562.29c-1.376.713-2.482 1.496-3.386 2.392-.902.897-1.69 2-2.406 3.375l-.292.56" fill="#919CB0"/></g></symbol><symbol id="criminal-law" viewBox="0 0 56 53"><title>criminal-law</title><path d="M42.064 36.498c3.65 0 7.083-1.412 9.665-3.976 5.33-5.293 5.33-13.907 0-19.2a13.627 13.627 0 0 0-9.666-3.976c-1.073 0-2.185.16-3.502.507l-.258.07-3.573-3.55a2.357 2.357 0 0 0-1.67-.686c-.63 0-1.222.244-1.668.687l-2.607 2.588-2.693-2.674.038-.234a5.145 5.145 0 0 0-1.436-4.475A5.17 5.17 0 0 0 21.026.07a5.17 5.17 0 0 0-3.67 1.507.94.94 0 0 0 0 1.33.977.977 0 0 0 1.342 0 3.28 3.28 0 0 1 2.328-.956c.88 0 1.707.34 2.328.956.62.617.963 1.438.963 2.312 0 .874-.342 1.696-.963 2.312a3.282 3.282 0 0 1-2.328.957 3.28 3.28 0 0 1-2.328-.956 5.172 5.172 0 0 0-3.67-1.506 5.17 5.17 0 0 0-3.67 1.506c-.99.987-1.606 2.324-1.684 3.67-.082 1.388.398 2.673 1.35 3.618.142.142.254.272.358.393.184.214.273.356.51.486l.21.132v4.044H9.545c-1.378 0-2.565.985-2.565 2.195v5.04l-.214.13C2.413 29.518.032 33.665.032 38.917c0 7.486 6.156 13.575 13.712 13.575 7.46 0 13.536-6.09 13.536-13.575 0-4.707-2.703-9.186-7.006-11.687l-.26-.134V22.07c0-1.353-.72-2.194-1.987-2.194h-4.064v-3.55l.484-.013c1.124-.034 2.827-.444 3.88-1.49.366-.363.545-.975.186-1.332-.364-.36-.885-.36-1.25 0a3.25 3.25 0 0 1-4.608 0 3.205 3.205 0 0 1-.95-2.315 3.27 3.27 0 0 1 .973-2.308 3.29 3.29 0 0 1 2.334-.957c.884 0 1.712.34 2.333.957a5.177 5.177 0 0 0 3.672 1.506c1.39 0 2.693-.535 3.672-1.506.054-.055.1-.116.147-.177.04-.052.08-.104.124-.154l.328-.382 2.155 2.14-2.05 2.036a2.32 2.32 0 0 0-.69 1.66c0 .625.245 1.214.69 1.657l3.584 3.56-.068.255c-1.24 4.687.096 9.69 3.487 13.06a13.627 13.627 0 0 0 9.667 3.976zm-28.277 14.11c-6.492 0-11.774-5.244-11.774-11.69 0-6.45 5.282-11.694 11.774-11.694 6.492 0 11.773 5.245 11.773 11.693 0 6.447-5.28 11.692-11.773 11.692zm3.9-28.883v4.496l-.57-.183c-1.383-.42-2.38-.697-3.803-.697-1.387 0-2.89.266-3.786.675l-.685.3v-4.59h8.843zm12.01-4.467l-3.29-3.27 6.654-6.61 3.285 3.262-.562.29c-1.376.713-2.482 1.496-3.386 2.392-.902.897-1.69 2-2.406 3.375l-.292.56zm4.04-2.604a11.737 11.737 0 0 1 8.327-3.425c3.145 0 6.1 1.216 8.324 3.424a11.574 11.574 0 0 1 3.45 8.27c0 3.122-1.226 6.058-3.45 8.267a11.733 11.733 0 0 1-8.324 3.425 11.737 11.737 0 0 1-8.326-3.424 11.576 11.576 0 0 1-3.448-8.267c0-3.124 1.224-6.06 3.448-8.27z" fill="currentColor" fill-rule="evenodd"/></symbol><symbol id="environmental-white" viewBox="0 0 53 52"><title>environmental-white</title><g fill="none" fill-rule="evenodd"><path d="M49.96 14.572l-.01 3.78h-2.028v-6.55l1.74 1.41c.09.153.3.592.3 1.36zM7.138 49.962l-.002-27.53H28.55v27.53H7.136zm.46-47.45c.297-.32.75-.473 1.388-.473h17.71c.64 0 1.093.153 1.39.472.433.46.484 1.233.464 1.566v16.314H7.134V4.002c-.018-.26.03-1.03.462-1.49zm44.997 3.01a1.02 1.02 0 0 0-1.02-1.018c-1.96 0-3.464.577-4.467 1.718-1.367 1.55-1.263 3.598-1.225 4.026v26.49c.01.132.21 2.198-1.01 3.554-.76.845-1.96 1.273-3.562 1.273-1.37 0-2.453-.39-3.217-1.162-1.39-1.404-1.387-3.66-1.387-3.697v-8.89c0-2.606-.746-4.587-2.218-5.886-1.307-1.154-2.863-1.465-3.902-1.536V4.16c.013-.183.113-1.822-.993-3.023C29.115.617 28.223 0 26.696 0H8.986c-1.53 0-2.42.618-2.897 1.138-1.105 1.2-1.004 2.842-.992 2.94V49.96H1.02a1.02 1.02 0 0 0 0 2.04h33.647a1.02 1.02 0 0 0 0-2.04h-4.08V22.438c.716.068 1.73.295 2.55 1.02 1.016.896 1.53 2.363 1.53 4.36v8.872c-.002.125-.028 3.11 1.962 5.133 1.162 1.182 2.737 1.782 4.68 1.782 2.216 0 3.93-.662 5.094-1.967 1.695-1.9 1.557-4.487 1.518-4.948V20.392h2.04c.757 0 1.224-.32 1.483-.59.562-.585.56-1.345.555-1.45v-3.78c0-1.728-.725-2.626-.808-2.723l-3.25-2.652c.07-.504.254-1.135.705-1.64.6-.674 1.586-1.015 2.928-1.015a1.02 1.02 0 0 0 1.02-1.02z" fill="#FFF"/><path d="M7.597 2.51c.297-.317.75-.47 1.388-.47h17.71c.64 0 1.093.153 1.39.472.433.46.484 1.233.464 1.566v16.314H7.134V4.002c-.018-.26.03-1.03.462-1.49z" fill="#75899B"/></g></symbol><symbol id="environmental" viewBox="0 0 53 52"><title>environmental</title><path d="M49.96 14.572l-.01 3.78h-2.028v-6.55l1.74 1.41c.09.153.3.592.3 1.36zM7.138 49.962l-.002-27.53H28.55v27.53H7.136zm.46-47.45c.297-.32.75-.473 1.388-.473h17.71c.64 0 1.093.153 1.39.472.433.46.484 1.233.464 1.566v16.314H7.134V4.002c-.018-.26.03-1.03.462-1.49zm44.997 3.01a1.02 1.02 0 0 0-1.02-1.018c-1.96 0-3.464.577-4.467 1.718-1.367 1.55-1.263 3.598-1.225 4.026v26.49c.01.132.21 2.198-1.01 3.554-.76.845-1.96 1.273-3.562 1.273-1.37 0-2.453-.39-3.217-1.162-1.39-1.404-1.387-3.66-1.387-3.697v-8.89c0-2.606-.746-4.587-2.218-5.886-1.307-1.154-2.863-1.465-3.902-1.536V4.16c.013-.183.113-1.822-.993-3.023C29.115.617 28.223 0 26.696 0H8.986c-1.53 0-2.42.618-2.897 1.138-1.105 1.2-1.004 2.842-.992 2.94V49.96H1.02a1.02 1.02 0 0 0 0 2.04h33.647a1.02 1.02 0 0 0 0-2.04h-4.08V22.438c.716.068 1.73.295 2.55 1.02 1.016.896 1.53 2.363 1.53 4.36v8.872c-.002.125-.028 3.11 1.962 5.133 1.162 1.182 2.737 1.782 4.68 1.782 2.216 0 3.93-.662 5.094-1.967 1.695-1.9 1.557-4.487 1.518-4.948V20.392h2.04c.757 0 1.224-.32 1.483-.59.562-.585.56-1.345.555-1.45v-3.78c0-1.728-.725-2.626-.808-2.723l-3.25-2.652c.07-.504.254-1.135.705-1.64.6-.674 1.586-1.015 2.928-1.015a1.02 1.02 0 0 0 1.02-1.02z" fill="currentColor" fill-rule="evenodd"/></symbol><symbol id="legal-malpractice-white" viewBox="0 0 52 53"><title>legal-malpractice-white</title><g fill="none" fill-rule="evenodd"><path d="M14.563 50.893c0-5.855 5.307-10.697 11.852-10.697 6.546 0 11.852 4.842 11.852 10.697H14.563" fill="#919CB0"/><path d="M51.228 3.37a.908.908 0 0 0-1.112-.637L27.21 8.853V.902c0-.496-.407-.9-.908-.9-.5 0-.907.404-.907.9v8.44L.683 15.94a.9.9 0 1 0 .472 1.74l7.598-2.03c-.026.036-.056.067-.076.11L3.99 25.68a.887.887 0 0 0-.08.44H1.815v.9c0 3.53 3.38 7.633 7.71 7.633 4.327 0 7.708-4.103 7.708-7.632v-.9h-2.164a.867.867 0 0 0-.062-.573l-4.687-9.794a.743.743 0 0 0-.49-.392l15.565-4.16v27.388c-7.037.536-12.244 6.03-12.244 13.202v.9h26.757v-.9c0-7.327-5.432-12.905-12.698-13.233V10.72l15.067-4.026c-.013.02-.03.036-.042.06l-4.687 9.92a.89.89 0 0 0-.08.44h-2.096v.9c0 3.53 3.38 7.634 7.71 7.634 4.327 0 7.708-4.103 7.708-7.633v-.9h-2.164a.867.867 0 0 0-.062-.573l-4.687-9.794a.728.728 0 0 0-.422-.37l7.133-1.905a.9.9 0 0 0 .64-1.104zM8.616 20.087v6.034h-2.83l2.83-6.034zM9.5 32.854c-2.89 0-5.28-2.517-5.777-4.93h11.552c-.498 2.413-2.887 4.93-5.776 4.93zm.93-6.732v-5.99l2.855 5.99H10.43zm27.782 24.77h-22.99c.435-6.072 5.23-10.546 11.496-10.546 6.264 0 11.06 4.474 11.494 10.547zm3.962-39.81v6.032h-2.83l2.83-6.033zm.883 12.764c-2.89 0-5.278-2.517-5.776-4.93h11.553c-.498 2.413-2.887 4.93-5.776 4.93zm.93-6.732v-5.99l2.855 5.99h-2.854z" fill="#FFF"/></g></symbol><symbol id="legal-malpractice" viewBox="0 0 52 53"><title>legal-malpractice</title><path d="M51.228 3.37a.908.908 0 0 0-1.112-.637L27.21 8.853V.902c0-.496-.407-.9-.908-.9-.5 0-.907.404-.907.9v8.44L.683 15.94a.9.9 0 1 0 .472 1.74l7.598-2.03c-.026.036-.056.067-.076.11L3.99 25.68a.887.887 0 0 0-.08.44H1.815v.9c0 3.53 3.38 7.633 7.71 7.633 4.327 0 7.708-4.103 7.708-7.632v-.9h-2.164a.867.867 0 0 0-.062-.573l-4.687-9.794a.743.743 0 0 0-.49-.392l15.565-4.16v27.388c-7.037.536-12.244 6.03-12.244 13.202v.9h26.757v-.9c0-7.327-5.432-12.905-12.698-13.233V10.72l15.067-4.026c-.013.02-.03.036-.042.06l-4.687 9.92a.89.89 0 0 0-.08.44h-2.096v.9c0 3.53 3.38 7.634 7.71 7.634 4.327 0 7.708-4.103 7.708-7.633v-.9h-2.164a.867.867 0 0 0-.062-.573l-4.687-9.794a.728.728 0 0 0-.422-.37l7.133-1.905a.9.9 0 0 0 .64-1.104zM8.616 20.087v6.034h-2.83l2.83-6.034zM9.5 32.854c-2.89 0-5.28-2.517-5.777-4.93h11.552c-.498 2.413-2.887 4.93-5.776 4.93zm.93-6.732v-5.99l2.855 5.99H10.43zm27.782 24.77h-22.99c.435-6.072 5.23-10.546 11.496-10.546 6.264 0 11.06 4.474 11.494 10.547zm3.962-39.81v6.032h-2.83l2.83-6.033zm.883 12.764c-2.89 0-5.278-2.517-5.776-4.93h11.553c-.498 2.413-2.887 4.93-5.776 4.93zm.93-6.732v-5.99l2.855 5.99h-2.854z" fill="currentColor" fill-rule="evenodd"/></symbol><symbol id="maritime-law-white" viewBox="0 0 47 54"><title>maritime-law-white</title><g fill="none" fill-rule="evenodd"><path d="M44.81 37.714L40.56 35.28a2.224 2.224 0 0 0-.586-.225 18.598 18.598 0 0 0 2.158-8.708c0-2.71-.584-5.285-1.627-7.615.17-.05.34-.117.5-.21l4.248-2.435a2.205 2.205 0 0 0 .816-3.024 2.236 2.236 0 0 0-3.044-.81l-4.248 2.435c-.172.1-.32.223-.453.356A18.976 18.976 0 0 0 24.9 7.608c.04-.168.068-.342.068-.523v-4.87A2.22 2.22 0 0 0 22.738 0c-1.23 0-2.228.99-2.228 2.214v4.87c0 .218.04.424.1.622a18.975 18.975 0 0 0-12.305 7.01 2.227 2.227 0 0 0-.663-.58l-4.248-2.437a2.236 2.236 0 0 0-3.045.81 2.206 2.206 0 0 0 .815 3.024l4.247 2.435c.218.125.45.204.684.25a18.598 18.598 0 0 0-1.86 8.127c0 2.755.603 5.37 1.68 7.73-.173.05-.342.112-.504.205l-4.247 2.436a2.206 2.206 0 0 0-.816 3.024 2.23 2.23 0 0 0 1.93 1.108 2.23 2.23 0 0 0 1.114-.297l4.248-2.436a2.2 2.2 0 0 0 .474-.378 18.985 18.985 0 0 0 11.842 7.148c-.212.34-.34.736-.34 1.164v4.87a2.22 2.22 0 0 0 2.23 2.215c1.23 0 2.23-.99 2.23-2.214v-4.87c0-.323-.075-.627-.2-.904a18.962 18.962 0 0 0 13.766-6.658c.18.246.407.46.69.62l4.246 2.437c.35.2.735.296 1.112.296.77 0 1.52-.397 1.933-1.107a2.205 2.205 0 0 0-.816-3.026zm-6.987-2.472L29.9 30.7a7.88 7.88 0 0 0 1.31-4.353 7.87 7.87 0 0 0-.737-3.317l7.933-4.55a16.84 16.84 0 0 1 1.945 7.867c0 3.258-.925 6.304-2.527 8.895zm-14.638-3.138c-3.196 0-5.796-2.583-5.796-5.757 0-3.174 2.6-5.756 5.795-5.756 3.196 0 5.796 2.583 5.796 5.757 0 3.174-2.6 5.757-5.795 5.757zM37.5 16.954l-7.95 4.56a8.024 8.024 0 0 0-5.92-3.115V9.31a17.19 17.19 0 0 1 13.87 7.645zM21.848 9.357v9.14a8.026 8.026 0 0 0-4.703 2.62L9.158 16.54a17.188 17.188 0 0 1 12.69-7.182zm-13.642 8.68l7.913 4.538a7.867 7.867 0 0 0-.17 7.2L8.02 34.32c-1.273-2.38-2-5.093-2-7.973 0-3.016.797-5.85 2.187-8.31zm.73 17.806l7.957-4.563a8.032 8.032 0 0 0 4.955 2.918v9.14a17.194 17.194 0 0 1-12.912-7.496zm14.696 7.542v-9.09a8.014 8.014 0 0 0 5.114-2.212l8.062 4.623a17.185 17.185 0 0 1-13.175 6.68z" fill="#FFF"/><path d="M23.278 35.72c-5.18 0-9.396-4.187-9.396-9.332 0-5.145 4.215-9.33 9.396-9.33 5.18 0 9.395 4.185 9.395 9.33 0 5.145-4.214 9.33-9.395 9.33zm0-13.792c-2.477 0-4.492 2-4.492 4.46s2.015 4.46 4.492 4.46c2.476 0 4.49-2 4.49-4.46s-2.014-4.46-4.49-4.46z" fill="#75899B"/><path d="M23.278 17.72c4.812 0 8.726 3.89 8.726 8.668 0 4.78-3.914 8.667-8.726 8.667-4.813 0-8.727-3.888-8.727-8.667 0-4.78 3.915-8.667 8.728-8.667zm0 13.793c2.845 0 5.16-2.3 5.16-5.125 0-2.826-2.315-5.124-5.16-5.124-2.846 0-5.16 2.298-5.16 5.124 0 2.826 2.314 5.125 5.16 5.125zm0-15.12c-5.55 0-10.065 4.483-10.065 9.995s4.515 9.996 10.065 9.996 10.064-4.484 10.064-9.996c0-5.512-4.515-9.995-10.064-9.995zm0 13.79c-2.108 0-3.823-1.702-3.823-3.795s1.715-3.796 3.823-3.796c2.107 0 3.822 1.703 3.822 3.796s-1.715 3.796-3.822 3.796z" fill="#FFF"/></g></symbol><symbol id="maritime-law" viewBox="0 0 47 54"><title>maritime-law</title><path d="M44.81 37.714L40.56 35.28a2.224 2.224 0 0 0-.586-.225 18.598 18.598 0 0 0 2.158-8.708c0-2.71-.584-5.285-1.627-7.615.17-.05.34-.117.5-.21l4.248-2.435a2.205 2.205 0 0 0 .816-3.024 2.236 2.236 0 0 0-3.044-.81l-4.248 2.435c-.172.1-.32.223-.453.356A18.976 18.976 0 0 0 24.9 7.608c.04-.168.068-.342.068-.523v-4.87A2.22 2.22 0 0 0 22.738 0c-1.23 0-2.228.99-2.228 2.214v4.87c0 .218.04.424.1.622a18.975 18.975 0 0 0-12.305 7.01 2.227 2.227 0 0 0-.663-.58l-4.248-2.437a2.236 2.236 0 0 0-3.045.81 2.206 2.206 0 0 0 .815 3.024l4.247 2.435c.218.125.45.204.684.25a18.598 18.598 0 0 0-1.86 8.127c0 2.755.603 5.37 1.68 7.73-.173.05-.342.112-.504.205l-4.247 2.436a2.206 2.206 0 0 0-.816 3.024 2.23 2.23 0 0 0 1.93 1.108 2.23 2.23 0 0 0 1.114-.297l4.248-2.436a2.2 2.2 0 0 0 .474-.378 18.985 18.985 0 0 0 11.842 7.148c-.212.34-.34.736-.34 1.164v4.87a2.22 2.22 0 0 0 2.23 2.215c1.23 0 2.23-.99 2.23-2.214v-4.87c0-.323-.075-.627-.2-.904a18.962 18.962 0 0 0 13.766-6.658c.18.246.407.46.69.62l4.246 2.437c.35.2.735.296 1.112.296.77 0 1.52-.397 1.933-1.107a2.205 2.205 0 0 0-.816-3.026zm-6.987-2.472L29.9 30.7a7.88 7.88 0 0 0 1.31-4.353 7.87 7.87 0 0 0-.737-3.317l7.933-4.55a16.84 16.84 0 0 1 1.945 7.867c0 3.258-.925 6.304-2.527 8.895zm-14.638-3.138c-3.196 0-5.796-2.583-5.796-5.757 0-3.174 2.6-5.756 5.795-5.756 3.196 0 5.796 2.583 5.796 5.757 0 3.174-2.6 5.757-5.795 5.757zM37.5 16.954l-7.95 4.56a8.024 8.024 0 0 0-5.92-3.115V9.31a17.19 17.19 0 0 1 13.87 7.645zM21.848 9.357v9.14a8.026 8.026 0 0 0-4.703 2.62L9.158 16.54a17.188 17.188 0 0 1 12.69-7.182zm-13.642 8.68l7.913 4.538a7.867 7.867 0 0 0-.17 7.2L8.02 34.32c-1.273-2.38-2-5.093-2-7.973 0-3.016.797-5.85 2.187-8.31zm.73 17.806l7.957-4.563a8.032 8.032 0 0 0 4.955 2.918v9.14a17.194 17.194 0 0 1-12.912-7.496zm14.696 7.542v-9.09a8.014 8.014 0 0 0 5.114-2.212l8.062 4.623a17.185 17.185 0 0 1-13.175 6.68z" fill="currentColor" fill-rule="evenodd"/></symbol><symbol id="mesothelioma-white" viewBox="0 0 53 52"><title>mesothelioma-white</title><g fill="none" fill-rule="evenodd"><path d="M19.802 14.734s-2.083-9.71-8.174-3.13C5.538 18.187 1.266 28.67 1.382 37.578c.115 8.91 5.065 12.678 10.016 13.135 4.95.456 10.59-.23 11.167-11.308.576-11.08-2.763-24.67-2.763-24.67M33.308 14.734s2.083-9.71 8.174-3.13c6.09 6.582 10.36 17.064 10.246 25.973-.115 8.91-5.066 12.678-10.016 13.135-4.95.456-10.592-.23-11.167-11.308-.576-11.08 2.763-24.67 2.763-24.67" fill="#8194A4"/><path d="M42.16 10.987c-1.586-1.715-3.122-2.584-4.564-2.584-2.744 0-4.193 3.028-4.81 4.825-.848-.446-2.21-1.462-2.3-3.42-.15-3.285-.313-8.858-.314-8.914a.687.687 0 0 0-.71-.665.687.687 0 0 0-.67.703c0 .057.164 5.64.315 8.938.13 2.84 2.21 4.187 3.293 4.698-.08.327-.47 1.96-.94 4.406-1.212-.158-3.678-.892-4.214-4.233a.69.69 0 0 0-.682-.577h-.228a.69.69 0 0 0-.682.578c-.503 3.144-2.745 3.978-4.012 4.198a96.403 96.403 0 0 0-.93-4.35c1.118-.6 2.96-1.983 3.082-4.648.15-3.296.314-8.914.315-8.97a.687.687 0 0 0-.672-.705c-.368-.024-.7.287-.71.666 0 .057-.164 5.666-.314 8.95-.083 1.804-1.242 2.835-2.09 3.353-.62-1.806-2.068-4.83-4.81-4.83-1.442 0-2.978.87-4.565 2.584C4.56 17.892.343 28.582.46 37.587c.125 9.62 5.688 13.558 10.852 14.034.757.072 1.428.105 2.05.105 6.382 0 9.693-4.015 10.123-12.274.346-6.664-.682-14.122-1.586-19.13 1.334-.232 3.46-.974 4.55-3.35 1.143 2.49 3.42 3.255 4.736 3.488-.9 5.01-1.904 12.392-1.56 18.993.428 8.26 3.74 12.275 10.12 12.275.624 0 1.294-.033 2.052-.104 5.164-.475 10.727-4.412 10.85-14.032.117-9.006-4.098-19.696-10.488-26.6zm-20.515 28.37c-.27 5.213-1.467 10.54-8.283 10.54-.564 0-1.18-.03-1.88-.095-2.118-.196-9.043-1.656-9.18-12.237-.11-8.573 3.91-18.757 10.005-25.343 1.205-1.303 2.314-1.99 3.207-1.99 1.943 0 3.104 3.387 3.393 4.718.033.135 3.3 13.593 2.738 24.407zm19.982 10.445a20.5 20.5 0 0 1-1.88.096c-3.825 0-7.8-1.252-8.283-10.54-.562-10.815 2.705-24.273 2.744-24.434.262-1.218 1.445-4.693 3.388-4.693.892 0 2 .69 3.207 1.992 6.095 6.586 10.115 16.77 10.004 25.343-.137 10.58-7.06 12.04-9.18 12.237z" fill="#FFF"/></g></symbol><symbol id="mesothelioma" viewBox="0 0 53 52"><title>mesothelioma</title><path d="M42.16 10.987c-1.586-1.715-3.122-2.584-4.564-2.584-2.744 0-4.193 3.028-4.81 4.825-.848-.446-2.21-1.462-2.3-3.42-.15-3.285-.313-8.858-.314-8.914a.687.687 0 0 0-.71-.665.687.687 0 0 0-.67.703c0 .057.164 5.64.315 8.938.13 2.84 2.21 4.187 3.293 4.698-.08.327-.47 1.96-.94 4.406-1.212-.158-3.678-.892-4.214-4.233a.69.69 0 0 0-.682-.577h-.228a.69.69 0 0 0-.682.578c-.503 3.144-2.745 3.978-4.012 4.198a96.403 96.403 0 0 0-.93-4.35c1.118-.6 2.96-1.983 3.082-4.648.15-3.296.314-8.914.315-8.97a.687.687 0 0 0-.672-.705c-.368-.024-.7.287-.71.666 0 .057-.164 5.666-.314 8.95-.083 1.804-1.242 2.835-2.09 3.353-.62-1.806-2.068-4.83-4.81-4.83-1.442 0-2.978.87-4.565 2.584C4.56 17.892.343 28.582.46 37.587c.125 9.62 5.688 13.558 10.852 14.034.757.072 1.428.105 2.05.105 6.382 0 9.693-4.015 10.123-12.274.346-6.664-.682-14.122-1.586-19.13 1.334-.232 3.46-.974 4.55-3.35 1.143 2.49 3.42 3.255 4.736 3.488-.9 5.01-1.904 12.392-1.56 18.993.428 8.26 3.74 12.275 10.12 12.275.624 0 1.294-.033 2.052-.104 5.164-.475 10.727-4.412 10.85-14.032.117-9.006-4.098-19.696-10.488-26.6zm-20.515 28.37c-.27 5.213-1.467 10.54-8.283 10.54-.564 0-1.18-.03-1.88-.095-2.118-.196-9.043-1.656-9.18-12.237-.11-8.573 3.91-18.757 10.005-25.343 1.205-1.303 2.314-1.99 3.207-1.99 1.943 0 3.104 3.387 3.393 4.718.033.135 3.3 13.593 2.738 24.407zm19.982 10.445a20.5 20.5 0 0 1-1.88.096c-3.825 0-7.8-1.252-8.283-10.54-.562-10.815 2.705-24.273 2.744-24.434.262-1.218 1.445-4.693 3.388-4.693.892 0 2 .69 3.207 1.992 6.095 6.586 10.115 16.77 10.004 25.343-.137 10.58-7.06 12.04-9.18 12.237z" fill="currentColor" fill-rule="evenodd"/></symbol><symbol id="product-liability-white" viewBox="0 0 69 60"><title>product-liability-white</title><g fill="none" fill-rule="evenodd"><path d="M20.246 34.854a4.073 4.073 0 1 0 0 8.145 4.073 4.073 0 0 0 0-8.146" fill="#FFF"/><path d="M39.422 32.89c-2.537-7.468-9.307-12.986-17.447-13.675V16.89h22v16h-4.553zM20.254 57.636C10.188 57.636 2 49.448 2 39.382c0-10.065 8.188-18.255 18.254-18.255 10.065 0 18.254 8.19 18.254 18.255 0 10.066-8.19 18.254-18.254 18.254zm28.065-2.71A3.077 3.077 0 0 1 45.245 58a3.076 3.076 0 0 1-3.073-3.073 3.076 3.076 0 0 1 3.073-3.073 3.077 3.077 0 0 1 3.073 3.073zm18.823-11.993l-4.855 4.855-14.606-14.605a.996.996 0 0 0-.707-.293h-1v-16h1a1 1 0 0 0 0-2h-25V8.057c0-2.207-.658-3.966-1.956-5.23-2.056-2-4.95-1.934-5.045-1.937h-5a1 1 0 0 0 0 2H15c.023.005 2.195-.03 3.637 1.384.888.87 1.338 2.143 1.338 3.783V19.14C8.935 19.293 0 28.308 0 39.383 0 50.55 9.086 59.636 20.254 59.636c11.17 0 20.254-9.086 20.254-20.254 0-1.545-.19-3.045-.52-4.492h3.987v15c-2.167.694-3.802 2.67-3.802 5.037A5.078 5.078 0 0 0 45.246 60a5.078 5.078 0 0 0 5.073-5.073c0-2.55-1.898-4.646-4.352-5l.007-15.037h.586l15.02 15.02c.196.195.452.292.708.292a.996.996 0 0 0 .707-.292l5.562-5.563a1 1 0 1 0-1.414-1.414z" fill="#FFF"/><path d="M39.422 32.89c-2.537-7.468-9.307-12.986-17.447-13.675V16.89h22v16h-4.553z" fill="#75899B"/></g></symbol><symbol id="product-liability" viewBox="0 0 69 60"><title>product-liability</title><g fill="currentColor" fill-rule="evenodd"><path d="M20.246 34.854a4.073 4.073 0 1 0 0 8.145 4.073 4.073 0 0 0 0-8.146"/><path d="M39.422 32.89c-2.537-7.468-9.307-12.986-17.447-13.675V16.89h22v16h-4.553zM20.254 57.636C10.188 57.636 2 49.448 2 39.382c0-10.065 8.188-18.255 18.254-18.255 10.065 0 18.254 8.19 18.254 18.255 0 10.066-8.19 18.254-18.254 18.254zm28.065-2.71A3.077 3.077 0 0 1 45.245 58a3.076 3.076 0 0 1-3.073-3.073 3.076 3.076 0 0 1 3.073-3.073 3.077 3.077 0 0 1 3.073 3.073zm18.823-11.993l-4.855 4.855-14.606-14.605a.996.996 0 0 0-.707-.293h-1v-16h1a1 1 0 0 0 0-2h-25V8.057c0-2.207-.658-3.966-1.956-5.23-2.056-2-4.95-1.934-5.045-1.937h-5a1 1 0 0 0 0 2H15c.023.005 2.195-.03 3.637 1.384.888.87 1.338 2.143 1.338 3.783V19.14C8.935 19.293 0 28.308 0 39.383 0 50.55 9.086 59.636 20.254 59.636c11.17 0 20.254-9.086 20.254-20.254 0-1.545-.19-3.045-.52-4.492h3.987v15c-2.167.694-3.802 2.67-3.802 5.037A5.078 5.078 0 0 0 45.246 60a5.078 5.078 0 0 0 5.073-5.073c0-2.55-1.898-4.646-4.352-5l.007-15.037h.586l15.02 15.02c.196.195.452.292.708.292a.996.996 0 0 0 .707-.292l5.562-5.563a1 1 0 1 0-1.414-1.414z"/></g></symbol><symbol id="right-arrow" viewBox="-1.042 -0.167 52 46.5"><path fill="none" stroke="currentColor" stroke-width="2" d="M25.925 45.144L48.737 22.56 26.96 1m21.777 21.56H0"/></symbol></svg>