<?xml version="1.0" encoding="UTF-8" standalone="no"?>
<svg width="57px" height="41px" viewBox="0 0 57 41" version="1.1" xmlns="http://www.w3.org/2000/svg" xmlns:xlink="http://www.w3.org/1999/xlink" xmlns:sketch="http://www.bohemiancoding.com/sketch/ns">
    <!-- Generator: Sketch 3.5.2 (25235) - http://www.bohemiancoding.com/sketch -->
    <title>class-action</title>
    <desc>Created with Sketch.</desc>
    <defs></defs>
    <g id="Svgs" stroke="none" stroke-width="1" fill="none" fill-rule="evenodd" sketch:type="MSPage">
        <g id="svgs" sketch:type="MSArtboardGroup" transform="translate(-454.000000, -122.000000)">
            <g id="class-action" sketch:type="MSLayerGroup" transform="translate(454.000000, 122.000000)">
                <path d="M0.953226399,27.5029157 L1.42032546,28.3609757 L3.57958259,28.8415253 L4.48931577,29.7756274 L5.43484025,39.447813 L6.87056955,39.8968659 L11.024172,39.6336435 L12.0059409,36.9712727 L12.3833352,28.7596339 L15.6679794,28.215641 L13.1761803,15.7483484 L3.62443498,15.7483484 L2.31374868,21.2413724 L0.953226399,27.5029157 Z" id="fill" fill="#75899B" sketch:type="MSShapeGroup"></path>
                <path d="M8.46214956,0.392358852 C5.10320445,0.392358852 2.37038048,3.10602426 2.37038048,6.44197441 C2.37038048,9.77837452 5.10320445,12.4924899 8.46214956,12.4924899 C11.8210947,12.4924899 14.5539187,9.77837452 14.5539187,6.44197441 C14.5539187,3.10602426 11.8210947,0.392358852 8.46214956,0.392358852 L8.46214956,0.392358852 Z M8.46214956,10.7718703 C6.05869612,10.7718703 4.10286039,8.82987399 4.10286039,6.44197441 C4.10286039,4.05497475 6.05869612,2.11252845 8.46214956,2.11252845 C10.8660561,2.11252845 12.8214387,4.05497475 12.8214387,6.44197441 C12.8214387,8.82987399 10.8660561,10.7718703 8.46214956,10.7718703 L8.46214956,10.7718703 Z" id="outline" fill="#FFFFFF" sketch:type="MSShapeGroup"></path>
                <path d="M10.4202506,40.5506474 C11.7794137,40.5506474 12.5351084,39.7353329 12.6248131,38.6149504 L13.3696345,29.6968856 L14.4913971,29.6968856 C15.1415302,29.6968856 15.7527005,29.350422 16.1690575,28.8550239 C16.5854145,28.3591759 16.7580282,27.6792972 16.6415932,27.0448637 L14.631844,16.1236091 C14.4429203,15.0909674 13.5390769,14.39849 12.482101,14.39849 L4.44265117,14.39849 C3.38612838,14.39849 2.48183185,15.075219 2.29245512,16.1078607 L0.282252874,27.0498132 C0.1658179,27.6842467 0.338431616,28.377174 0.754788584,28.873022 C1.1706925,29.3684201 1.7823159,29.6968856 2.43244892,29.6968856 L3.5546646,29.6968856 L4.21884231,38.6149504 C4.30900013,39.7353329 5.43665247,40.5506474 6.34276121,40.5506474 M9.51414182,16.1983012 L12.6710247,16.1978513 L14.7627767,27.4471216 L11.5605884,27.4471216 L10.6812099,38.6959419 L6.24263619,38.6959419 L5.36371071,27.4471216 L2.16106936,27.4471216 L4.2537275,16.1983012 L7.24886996,16.1983012" id="outline" fill="#FFFFFF" sketch:type="MSShapeGroup"></path>
                <path d="M22.0216139,21.2413724 L20.6610916,27.5029157 L21.1281906,28.3609757 L23.2874478,28.8415253 L24.197181,29.7756274 L25.1427054,39.447813 L26.5784347,39.8968659 L30.7320372,39.6336435 L31.7138061,36.9712727 L32.0912003,28.7596339 L35.3758445,28.215641 L32.8840455,15.7483484 L23.3323002,15.7483484 L22.0216139,21.2413724" id="fill" fill="#75899B" sketch:type="MSShapeGroup"></path>
                <path d="M28.1700148,0.392358852 C24.8110696,0.392358852 22.0782457,3.10602426 22.0782457,6.44197441 C22.0782457,9.77837452 24.8110696,12.4924899 28.1700148,12.4924899 C31.5289599,12.4924899 34.2617838,9.77837452 34.2617838,6.44197441 C34.2617838,3.10602426 31.5289599,0.392358852 28.1700148,0.392358852 L28.1700148,0.392358852 Z M28.1700148,10.7718703 C25.7665613,10.7718703 23.8107256,8.82987399 23.8107256,6.44197441 C23.8107256,4.05497475 25.7665613,2.11252845 28.1700148,2.11252845 C30.5739213,2.11252845 32.5293039,4.05497475 32.5293039,6.44197441 C32.5293039,8.82987399 30.5739213,10.7718703 28.1700148,10.7718703 L28.1700148,10.7718703 Z" id="outline" fill="#FFFFFF" sketch:type="MSShapeGroup"></path>
                <path d="M30.1281158,40.5506474 C31.4872789,40.5506474 32.2429736,39.7353329 32.3326783,38.6149504 L33.0774997,29.6968856 L34.1992623,29.6968856 C34.8493954,29.6968856 35.4605657,29.350422 35.8769227,28.8550239 C36.2932796,28.3591759 36.4658934,27.6792972 36.3494584,27.0448637 L34.3397092,16.1236091 C34.1507855,15.0909674 33.246942,14.39849 32.1899662,14.39849 L24.1505164,14.39849 C23.0939936,14.39849 22.189697,15.075219 22.0003203,16.1078607 L19.9901181,27.0498132 C19.8736831,27.6842467 20.0462968,28.377174 20.4626538,28.873022 C20.8785577,29.3684201 21.4901811,29.6968856 22.1403141,29.6968856 L23.2625298,29.6968856 L23.9267075,38.6149504 C24.0168653,39.7353329 25.1445177,40.5506474 26.0506264,40.5506474 M29.4485342,16.1983012 L32.3788899,16.1978513 L34.4706419,27.4471216 L31.2684536,27.4471216 L30.3890751,38.6959419 L25.9505014,38.6959419 L25.0715759,27.4471216 L21.8689345,27.4471216 L23.9615927,16.1983012 L27.1832623,16.1983012" id="outline" fill="#FFFFFF" sketch:type="MSShapeGroup"></path>
                <path d="M41.7294791,21.2413724 L40.3689568,27.5029157 L40.8360558,28.3609757 L42.995313,28.8415253 L43.9050462,29.7756274 L44.8505706,39.447813 L46.2862999,39.8968659 L50.4399024,39.6336435 L51.4216712,36.9712727 L51.7990655,28.7596339 L55.0837097,28.215641 L52.5919107,15.7483484 L43.0401654,15.7483484 L41.7294791,21.2413724" id="fill" fill="#75899B" sketch:type="MSShapeGroup"></path>
                <path d="M47.8778799,0.392358852 C44.5189348,0.392358852 41.7861109,3.10602426 41.7861109,6.44197441 C41.7861109,9.77837452 44.5189348,12.4924899 47.8778799,12.4924899 C51.2368251,12.4924899 53.969649,9.77837452 53.969649,6.44197441 C53.969649,3.10602426 51.2368251,0.392358852 47.8778799,0.392358852 L47.8778799,0.392358852 Z M47.8778799,10.7718703 C45.4744265,10.7718703 43.5185908,8.82987399 43.5185908,6.44197441 C43.5185908,4.05497475 45.4744265,2.11252845 47.8778799,2.11252845 C50.2817864,2.11252845 52.2371691,4.05497475 52.2371691,6.44197441 C52.2371691,8.82987399 50.2817864,10.7718703 47.8778799,10.7718703 L47.8778799,10.7718703 Z" id="outline" fill="#FFFFFF" sketch:type="MSShapeGroup"></path>
                <path d="M49.8359809,40.5506474 C51.1951441,40.5506474 51.9508388,39.7353329 52.0405435,38.6149504 L52.7853649,29.6968856 L53.9071275,29.6968856 C54.5572606,29.6968856 55.1684309,29.350422 55.5847879,28.8550239 C56.0011448,28.3591759 56.1737586,27.6792972 56.0573236,27.0448637 L54.0475744,16.1236091 C53.8586507,15.0909674 52.9548072,14.39849 51.8978314,14.39849 L43.8583816,14.39849 C42.8018588,14.39849 41.8975622,15.075219 41.7081855,16.1078607 L39.6979833,27.0498132 C39.5815483,27.6842467 39.754162,28.377174 40.170519,28.873022 C40.5864229,29.3684201 41.1980463,29.6968856 41.8481793,29.6968856 L42.970395,29.6968856 L43.6345727,38.6149504 C43.7247305,39.7353329 44.8523828,40.5506474 45.7584916,40.5506474 M48.9298722,16.1983012 L52.0867551,16.1978513 L54.1785071,27.4471216 L50.9763188,27.4471216 L50.0969403,38.6959419 L45.6583666,38.6959419 L44.7794411,27.4471216 L41.5767997,27.4471216 L43.6694579,16.1983012 L46.6646003,16.1983012" id="outline" fill="#FFFFFF" sketch:type="MSShapeGroup"></path>
            </g>
        </g>
    </g>
</svg>