<?xml version="1.0" encoding="UTF-8" standalone="no"?>
<svg width="44px" height="44px" viewBox="0 0 44 44" version="1.1" xmlns="http://www.w3.org/2000/svg" xmlns:xlink="http://www.w3.org/1999/xlink" xmlns:sketch="http://www.bohemiancoding.com/sketch/ns">
    <!-- Generator: Sketch 3.5.2 (25235) - http://www.bohemiancoding.com/sketch -->
    <title>facebook</title>
    <desc>Created with Sketch.</desc>
    <defs></defs>
    <g id="Svgs" stroke="none" stroke-width="1" fill="none" fill-rule="evenodd" sketch:type="MSPage">
        <g id="svgs" sketch:type="MSArtboardGroup" transform="translate(-51.000000, -280.000000)">
            <g id="facebook" sketch:type="MSLayerGroup" transform="translate(52.000000, 280.000000)">
                <path d="M18.337,35.189 L18.337,23.012 L14.237,23.012 L14.237,18.268 L18.337,18.268 L18.337,14.764 C18.337,10.704 20.817,8.495 24.441,8.495 C26.176,8.495 27.668,8.621 28.102,8.679 L28.102,12.924 L25.587,12.924 C23.621,12.924 23.238,13.86 23.238,15.236 L23.238,18.262 L27.935,18.262 L27.326,23.01 L23.238,23.01 L23.238,35.189" id="Fill-1" fill="#FFFFFF" sketch:type="MSShapeGroup"></path>
                <path d="M42.086,21.842 C42.086,33.394 32.722,42.758 21.17,42.758 C9.618,42.758 0.253,33.394 0.253,21.842 C0.253,10.29 9.618,0.925 21.17,0.925 C32.722,0.925 42.086,10.29 42.086,21.842 L42.086,21.842 Z" id="Stroke-2" stroke="#FFFFFF" sketch:type="MSShapeGroup"></path>
            </g>
        </g>
    </g>
</svg>