<?xml version="1.0" encoding="UTF-8" standalone="no"?>
<svg width="44px" height="44px" viewBox="0 0 44 44" version="1.1" xmlns="http://www.w3.org/2000/svg" xmlns:xlink="http://www.w3.org/1999/xlink" xmlns:sketch="http://www.bohemiancoding.com/sketch/ns">
    <!-- Generator: Sketch 3.5.2 (25235) - http://www.bohemiancoding.com/sketch -->
    <title>google-plus</title>
    <desc>Created with Sketch.</desc>
    <defs></defs>
    <g id="Svgs" stroke="none" stroke-width="1" fill="none" fill-rule="evenodd" sketch:type="MSPage">
        <g id="svgs" sketch:type="MSArtboardGroup" transform="translate(-108.000000, -280.000000)">
            <g id="google-plus" sketch:type="MSLayerGroup" transform="translate(108.000000, 280.000000)">
                <path d="M16.657,20.54 L16.657,23.662 L21.828,23.662 C21.62,25.004 20.266,27.593 16.663,27.593 C13.555,27.593 11.018,25.017 11.018,21.841 C11.018,18.665 13.549,16.088 16.657,16.088 C18.429,16.088 19.613,16.844 20.289,17.495 L22.762,15.115 C21.175,13.63 19.117,12.736 16.661,12.736 C11.621,12.734 7.55,16.802 7.55,21.841 C7.55,26.879 11.622,30.948 16.657,30.948 C21.917,30.948 25.403,27.253 25.403,22.048 C25.403,21.451 25.338,20.993 25.26,20.54 L16.657,20.54 L16.657,20.54 Z M36.177,20.54 L33.574,20.54 L33.574,17.937 L30.971,17.937 L30.971,20.54 L28.369,20.54 L28.369,23.142 L30.973,23.142 L30.973,25.745 L33.576,25.745 L33.576,23.142 L36.177,23.142 L36.177,20.54 Z" id="Fill-3" fill="#FFFFFF" sketch:type="MSShapeGroup"></path>
                <path d="M42.78,21.842 C42.78,33.394 33.416,42.758 21.864,42.758 C10.312,42.758 0.947,33.394 0.947,21.842 C0.947,10.29 10.312,0.925 21.864,0.925 C33.416,0.925 42.78,10.29 42.78,21.842 L42.78,21.842 Z" id="Stroke-4" stroke="#FFFFFF" sketch:type="MSShapeGroup"></path>
            </g>
        </g>
    </g>
</svg>