<?xml version="1.0" encoding="UTF-8" standalone="no"?>
<svg width="52px" height="53px" viewBox="0 0 52 53" version="1.1" xmlns="http://www.w3.org/2000/svg" xmlns:xlink="http://www.w3.org/1999/xlink" xmlns:sketch="http://www.bohemiancoding.com/sketch/ns">
    <!-- Generator: Sketch 3.5.2 (25235) - http://www.bohemiancoding.com/sketch -->
    <title>legal-malpractice</title>
    <desc>Created with Sketch.</desc>
    <defs></defs>
    <g id="Svgs" stroke="none" stroke-width="1" fill="none" fill-rule="evenodd" sketch:type="MSPage">
        <g id="svgs" sketch:type="MSArtboardGroup" transform="translate(-153.000000, -116.000000)">
            <g id="legal-malpractice" sketch:type="MSLayerGroup" transform="translate(153.000000, 116.000000)">
                <path d="M14.5632052,50.8929533 C14.5632052,45.0380118 19.8698823,40.1964255 26.4154793,40.1964255 C32.9610764,40.1964255 38.2672999,45.0380118 38.2672999,50.8929533 L14.5632052,50.8929533" id="fill" fill="#919CB0" sketch:type="MSShapeGroup"></path>
                <path d="M51.2278905,3.36884328 C51.0977404,2.88873808 50.6002677,2.60409784 50.1163997,2.73290656 L27.2090774,8.85402274 L27.2090774,0.900760236 C27.2090774,0.403540586 26.8027552,0 26.3021081,0 C25.8010076,0 25.3951389,0.403540586 25.3951389,0.900760236 L25.3951389,9.33908213 L0.683401327,15.942105 C0.199533234,16.0718145 -0.0870690477,16.5658815 0.0430810392,17.0464371 C0.151917349,17.4481762 0.518332924,17.71345 0.918306362,17.71345 C0.996305717,17.71345 1.07566553,17.7035417 1.15457185,17.6823738 L8.7531602,15.6516099 C8.72731157,15.6876403 8.69738159,15.7187165 8.67742827,15.7610522 L3.9902112,25.6811247 C3.92309548,25.8238952 3.90132821,25.9752229 3.91130488,26.1220468 L1.81393849,26.1220468 L1.81393849,27.0228071 C1.81393849,30.5524361 5.19511984,34.6553989 9.52317709,34.6553989 C13.8512343,34.6553989 17.2324157,30.5524361 17.2324157,27.0228071 L17.2324157,26.1220468 L15.0679336,26.1220468 C15.1101076,25.937391 15.0955961,25.7378726 15.0058062,25.5500641 L10.3190426,15.756098 C10.2188225,15.5457705 10.0401496,15.4250687 9.83018618,15.363817 L25.3951389,11.205007 L25.3951389,38.5917212 C18.3579645,39.1276735 13.1510541,44.6214102 13.1510541,51.7937136 L13.1510541,52.6944738 L39.9066468,52.6944738 L39.9066468,51.7937136 C39.9066468,44.4673802 34.4752615,38.8894224 27.2090774,38.5606449 L27.2090774,10.7199476 L42.2765575,6.69399969 C42.2638599,6.71516756 42.246174,6.7300301 42.2352904,6.75344987 L37.5480733,16.673072 C37.4809576,16.8162928 37.4591903,16.9676206 37.469167,17.1144445 L35.3718006,17.1144445 L35.3718006,18.0152047 C35.3718006,21.5448337 38.7534355,25.6477966 43.0810392,25.6477966 C47.4090965,25.6477966 50.7902778,21.5448337 50.7902778,18.0152047 L50.7902778,17.1144445 L48.6257957,17.1144445 C48.6679698,16.9297886 48.6534583,16.7302702 48.5636683,16.5424617 L43.8769047,6.74849569 C43.7875683,6.56113756 43.6347439,6.44674101 43.4547105,6.37918399 L50.5875702,4.47317533 C51.0709848,4.34391624 51.3580406,3.84939887 51.2278905,3.36884328 L51.2278905,3.36884328 Z M8.61620784,20.0883044 L8.61620784,26.1220468 L5.78510334,26.1220468 L8.61620784,20.0883044 L8.61620784,20.0883044 Z M9.4991424,32.8538785 C6.61044535,32.8538785 4.22148836,30.336704 3.72310876,27.9235673 L15.275176,27.9235673 C14.7767964,30.336704 12.3878395,32.8538785 9.4991424,32.8538785 L9.4991424,32.8538785 Z M10.4301463,26.1220468 L10.4301463,20.1315409 L13.284832,26.1220468 L10.4301463,26.1220468 L10.4301463,26.1220468 Z M38.2119748,50.8929533 L15.2234788,50.8929533 C15.6565566,44.8204782 20.45261,40.3464021 26.7179535,40.3464021 C32.9823901,40.3464021 37.778897,44.8204782 38.2119748,50.8929533 L38.2119748,50.8929533 Z M42.17407,11.080702 L42.17407,17.1144445 L39.3429655,17.1144445 L42.17407,11.080702 L42.17407,11.080702 Z M43.0570045,23.8462761 C40.1683075,23.8462761 37.7793505,21.3291016 37.2809709,18.915965 L48.8325847,18.915965 C48.3346586,21.3291016 45.9457016,23.8462761 43.0570045,23.8462761 L43.0570045,23.8462761 Z M43.9880085,17.1144445 L43.9880085,11.1239385 L46.8422407,17.1144445 L43.9880085,17.1144445 L43.9880085,17.1144445 Z" id="outline" fill="#FFFFFF" sketch:type="MSShapeGroup"></path>
            </g>
        </g>
    </g>
</svg>