<?xml version="1.0" encoding="UTF-8" standalone="no"?>
<svg width="43px" height="44px" viewBox="0 0 43 44" version="1.1" xmlns="http://www.w3.org/2000/svg" xmlns:xlink="http://www.w3.org/1999/xlink" xmlns:sketch="http://www.bohemiancoding.com/sketch/ns">
    <!-- Generator: Sketch 3.5.2 (25235) - http://www.bohemiancoding.com/sketch -->
    <title>linkedin</title>
    <desc>Created with Sketch.</desc>
    <defs></defs>
    <g id="Svgs" stroke="none" stroke-width="1" fill="none" fill-rule="evenodd" sketch:type="MSPage">
        <g id="svgs" sketch:type="MSArtboardGroup" transform="translate(-162.000000, -280.000000)">
            <g id="linkedin" sketch:type="MSLayerGroup" transform="translate(162.000000, 280.000000)">
                <path d="M30.665,30.934 L26.895,30.934 L26.895,25.028 C26.895,23.618 26.866,21.807 24.932,21.807 C22.967,21.807 22.667,23.34 22.667,24.924 L22.667,30.934 L18.897,30.934 L18.897,18.789 L22.517,18.789 L22.517,20.443 L22.565,20.443 C23.071,19.489 24.302,18.482 26.139,18.482 C29.957,18.482 30.665,20.995 30.665,24.267 L30.665,30.934 L30.665,30.934 Z M14.64,17.127 C13.428,17.127 12.451,16.145 12.451,14.936 C12.451,13.731 13.428,12.749 14.64,12.749 C15.849,12.749 16.829,13.731 16.829,14.936 C16.829,16.145 15.847,17.127 14.64,17.127 L14.64,17.127 Z M12.75,18.789 L16.53,18.789 L16.53,30.934 L12.75,30.934 L12.75,18.789 Z" id="Fill-9" fill="#FFFFFF" sketch:type="MSShapeGroup"></path>
                <path d="M42.474,21.842 C42.474,33.394 33.11,42.758 21.558,42.758 C10.006,42.758 0.641,33.394 0.641,21.842 C0.641,10.29 10.006,0.925 21.558,0.925 C33.11,0.925 42.474,10.29 42.474,21.842 L42.474,21.842 Z" id="Stroke-10" stroke="#FFFFFF" sketch:type="MSShapeGroup"></path>
            </g>
        </g>
    </g>
</svg>