<?xml version="1.0" encoding="UTF-8" standalone="no"?>
<svg width="166px" height="67px" viewBox="0 0 166 67" version="1.1" xmlns="http://www.w3.org/2000/svg" xmlns:xlink="http://www.w3.org/1999/xlink" xmlns:sketch="http://www.bohemiancoding.com/sketch/ns">
    <!-- Generator: Sketch 3.5.2 (25235) - http://www.bohemiancoding.com/sketch -->
    <title>logo</title>
    <desc>Created with Sketch.</desc>
    <defs></defs>
    <g id="Svgs" stroke="none" stroke-width="1" fill="none" fill-rule="evenodd" sketch:type="MSPage">
        <g id="svgs" sketch:type="MSArtboardGroup" transform="translate(-22.000000, -20.000000)">
            <g id="logo" sketch:type="MSLayerGroup" transform="translate(22.000000, 20.000000)">
                <path d="M113.657717,0.020815534 C115.059567,0.020815534 116.388874,0.26084466 117.644331,0.739601942 C118.899787,1.21900971 119.993165,1.86429126 120.924465,2.67674757 C121.85511,3.48920388 122.598189,4.4311068 123.153047,5.50375728 C123.707252,6.57705825 124.005268,7.69654369 124.047748,8.86286408 C123.754961,8.92531068 123.49289,8.98775728 123.262843,9.05020388 C122.781181,9.15493204 122.40474,9.20632039 122.132866,9.20632039 C121.964906,9.20632039 121.808055,9.14387379 121.661661,9.01898058 C121.515268,8.89408738 121.410701,8.71715534 121.348614,8.48753398 C121.201567,7.9463301 120.949953,7.32121359 120.594425,6.61283495 C120.238244,5.90575728 119.757236,5.23835922 119.150748,4.6138932 C118.543606,3.9887767 117.784843,3.4573301 116.87511,3.02020388 C115.964724,2.58307767 114.89226,2.36386408 113.657717,2.36386408 C112.401606,2.36386408 111.261173,2.55705825 110.236417,2.94214563 C109.211008,3.3278835 108.331992,3.86908738 107.59937,4.56705825 C106.866748,5.26502913 106.296205,6.09309709 105.889047,7.05061165 C105.479929,8.0087767 105.276677,9.06126214 105.276677,10.2061165 C105.276677,11.9142913 105.715858,13.5489612 106.594874,15.1114272 C107.47389,16.6732427 108.833913,18.3501942 110.675598,20.1416311 L124.675803,33.8883398 C125.616906,32.3883204 126.365213,30.8265049 126.920071,29.2022427 C127.474276,27.5773301 127.835685,26.0051068 128.002992,24.4842718 C128.044819,24.2136699 128.128472,23.9996602 128.253953,23.8435437 C128.379433,23.6874272 128.568307,23.6093689 128.818614,23.6093689 L130.545276,23.6093689 C130.502795,25.5673301 130.131583,27.582534 129.430984,29.6549806 C128.729732,31.7274272 127.730465,33.7120583 126.433181,35.6069223 L135.787346,44.7299806 L132.993449,44.7299806 C132.617008,44.7299806 132.307882,44.6883495 132.068031,44.6044369 C131.826874,44.5218252 131.549772,44.3344854 131.236071,44.0424175 L124.801283,37.7626311 C123.858874,38.8456893 122.823661,39.8454854 121.693685,40.7613689 C120.563709,41.6785534 119.338969,42.4643398 118.020772,43.1206796 C116.701921,43.7770194 115.294843,44.2922039 113.798882,44.667534 C112.302268,45.0422136 110.727882,45.2295534 109.075071,45.2295534 C107.50526,45.2295534 105.956362,44.9693592 104.429031,44.4483204 C102.901047,43.927932 101.535795,43.1623107 100.332622,42.1521068 C99.1294488,41.1419029 98.1556693,39.9027282 97.4132441,38.433932 C96.6701654,36.9657864 96.2989528,35.2940388 96.2989528,33.4193398 C96.2989528,31.9199709 96.5708268,30.4882524 97.1152283,29.123534 C97.6589764,27.7601165 98.4020551,26.5098835 99.343811,25.3747864 C100.285567,24.2396893 101.404433,23.2242816 102.703024,22.3285631 C103.999654,21.4334951 105.402157,20.7036505 106.908575,20.1416311 C105.423071,18.4750874 104.308126,16.8560291 103.565701,15.2831553 C102.822622,13.710932 102.451409,12.0287767 102.451409,10.2373398 C102.451409,8.77960194 102.718055,7.43114563 103.251346,6.19132039 C103.785945,4.95214563 104.544055,3.87429126 105.527638,2.95775728 C106.51122,2.0412233 107.687598,1.32308738 109.058732,0.802048544 C110.429866,0.281660194 111.962425,0.020815534 113.657717,0.020815534 L113.657717,0.020815534 Z M99.343811,33.232 C99.343811,34.8367476 99.652937,36.2313883 100.269882,37.4185243 C100.886827,38.6063107 101.687417,39.6009029 102.671654,40.402301 C103.653929,41.205 104.747307,41.8034466 105.951134,42.1989417 C107.154307,42.5950874 108.341795,42.792835 109.514252,42.792835 C110.978843,42.792835 112.365661,42.6256602 113.672748,42.2926117 C114.981142,41.9595631 116.205228,41.495767 117.346315,40.9025243 C118.486094,40.3086311 119.532417,39.6061068 120.48463,38.7936505 C121.437496,37.9811942 122.309976,37.0861262 123.105992,36.1064951 L108.697976,22.0163301 C108.572496,21.9116019 108.456819,21.7971165 108.352906,21.6722233 C106.971969,22.2557087 105.721087,22.9536796 104.601567,23.7654854 C103.482047,24.5779417 102.535063,25.4788641 101.760614,26.4682524 C100.986819,27.4576408 100.38948,28.5257379 99.9718661,29.6705922 C99.5529449,30.8160971 99.343811,32.0038835 99.343811,33.232 L99.343811,33.232 Z" id="Fill-1" fill="#DD4742" sketch:type="MSShapeGroup"></path>
                <path d="M0.594724409,40.110233 L5.67537008,40.110233 L5.67537008,18.157 C5.67537008,17.264534 5.19697638,16.8482233 4.36044094,16.8482233 L0.296055118,16.8482233 L0.296055118,13.5164369 L6.03416535,13.5164369 C8.5444252,13.5164369 9.68028346,14.5871359 9.68028346,16.8482233 L9.68028346,18.5733107 C9.68028346,19.763699 9.44108661,20.7153592 9.44108661,20.7153592 L9.56068504,20.7153592 C11.114811,16.6693398 15.9569134,12.8028544 20.7382362,12.8028544 C26.1776772,12.8028544 29.0467323,15.3605631 29.8839213,20.4180874 L30.0035197,20.4180874 C31.6772441,16.4319126 36.0409528,12.8028544 41.1209449,12.8028544 C48.3537087,12.8028544 51.0436929,17.0264563 51.0436929,24.4042621 L51.0436929,40.110233 L56.1243386,40.110233 L56.1243386,43.4420194 L46.9793071,43.4420194 L46.9793071,25.4151165 C46.9793071,20.5371262 45.9630472,16.4911068 40.5236063,16.4911068 C34.4267008,16.4911068 30.4217874,22.9166019 30.4217874,29.1040194 L30.4217874,40.110233 L35.5024331,40.110233 L35.5024331,43.4420194 L26.3574016,43.4420194 L26.3574016,25.4151165 C26.3574016,20.8942427 25.7594094,16.4911068 20.0212992,16.4911068 C13.8642677,16.4911068 9.73975591,22.9757961 9.73975591,29.2230583 L9.73975591,40.110233 L14.8210551,40.110233 L14.8210551,43.4420194 L0.594724409,43.4420194 L0.594724409,40.110233" id="Fill-2" fill="#2D3E50" sketch:type="MSShapeGroup"></path>
                <path d="M63.0532047,4.94954369 L57.6738898,4.94954369 L57.6738898,1.61775728 L67.1175906,1.61775728 L67.1175906,16.372068 C67.1175906,17.7998835 66.9385197,18.871233 66.9385197,18.871233 L67.0581181,18.871233 C67.0581181,18.871233 69.6879764,12.8028544 77.3390079,12.8028544 C85.4089606,12.8028544 90.4294803,19.2283495 90.4294803,28.5094757 C90.4294803,37.968835 84.7514961,44.1562524 76.8606142,44.1562524 C69.6285039,44.1562524 66.9385197,38.0280291 66.9385197,38.0280291 L66.8189213,38.0280291 C66.8189213,38.0280291 66.9986457,39.0987282 66.9986457,40.5271942 L66.9986457,43.4420194 L63.0532047,43.4420194 L63.0532047,4.94954369 L63.0532047,4.94954369 Z M76.5619449,40.5271942 C81.8817874,40.5271942 86.305622,36.1247087 86.305622,28.5094757 C86.305622,21.1915146 82.3608346,16.4911068 76.7416693,16.4911068 C71.7204961,16.4911068 66.9986457,20.0609709 66.9986457,28.5686699 C66.9986457,34.5772039 70.1663701,40.5271942 76.5619449,40.5271942 L76.5619449,40.5271942 Z" id="Fill-3" fill="#2D3E50" sketch:type="MSShapeGroup"></path>
                <path d="M153.549346,12.8028544 C157.315063,12.8028544 164.667425,14.3497087 164.667425,19.2875437 L164.667425,22.5594854 L160.901709,22.5594854 L160.901709,20.3582427 C160.901709,17.6814951 156.358929,16.4319126 153.608819,16.4319126 C147.03352,16.4319126 142.013,21.1915146 142.013,28.4496311 C142.013,35.8859806 147.332843,40.5271942 153.78789,40.5271942 C159.646252,40.5271942 163.113299,36.8382913 163.651165,36.4219806 L165.384362,39.5150388 C164.727551,40.110233 160.602386,44.1562524 153.668945,44.1562524 C145.06178,44.1562524 137.828362,38.0878738 137.828362,28.5686699 C137.828362,19.2283495 144.882055,12.8028544 153.549346,12.8028544" id="Fill-4" fill="#2D3E50" sketch:type="MSShapeGroup"></path>
                <path d="M5.46362205,62.7679417 C5.48911024,62.7009417 5.51525197,62.6352427 5.54270079,62.5701942 C5.57014961,62.5051456 5.60086614,62.4433495 5.63419685,62.3848058 L9.14307087,56.2103981 C9.17640157,56.1564078 9.21038583,56.1225825 9.24437008,56.1102233 C9.27770079,56.0972136 9.32410236,56.0907087 9.38292126,56.0907087 L9.83059843,56.0907087 L9.83059843,64.9789417 L9.26332283,64.9789417 L9.26332283,57.4040388 C9.26332283,57.2954078 9.26920472,57.1796214 9.28162205,57.0579806 L5.76686614,63.270767 C5.70804724,63.3793981 5.62374016,63.4340388 5.51459843,63.4340388 L5.41329921,63.4340388 C5.30807874,63.4340388 5.2244252,63.3793981 5.1610315,63.270767 L1.55151181,57.0521262 C1.56392913,57.173767 1.57046457,57.2908544 1.57046457,57.4040388 L1.57046457,64.9789417 L1.00841732,64.9789417 L1.00841732,56.0907087 L1.4502126,56.0907087 C1.5090315,56.0907087 1.55674016,56.0972136 1.5920315,56.1102233 C1.62797638,56.1225825 1.66261417,56.1564078 1.69659843,56.2103981 L5.30023622,62.3913107 C5.36297638,62.5083981 5.41722047,62.6339417 5.46362205,62.7679417" id="Fill-5" fill="#6B818D" sketch:type="MSShapeGroup"></path>
                <path d="M16.1856535,64.9789417 C16.0595197,64.9789417 15.981748,64.9203981 15.9523386,64.8033107 L15.8641102,64.005165 C15.6909213,64.1729903 15.5196929,64.3232524 15.3497717,64.4572524 C15.1791969,64.5912524 15.0014331,64.7044369 14.8164803,64.7968058 C14.630874,64.8891748 14.4308898,64.9587767 14.2165276,65.0069126 C14.0021654,65.0550485 13.7662362,65.0791165 13.5100472,65.0791165 C13.2950315,65.0791165 13.0872047,65.0478932 12.8852598,64.9847961 C12.6826614,64.9223495 12.5042441,64.8260777 12.3487008,64.6966311 C12.1931575,64.566534 12.0676772,64.4000097 11.9729134,64.1970583 C11.8788031,63.9941068 11.8310945,63.7501748 11.8310945,63.4652621 C11.8310945,63.201165 11.9069055,62.9565825 12.0585276,62.7302136 C12.2101496,62.5038447 12.4467323,62.3067476 12.7682756,62.1395728 C13.0904724,61.9723981 13.5041654,61.8377476 14.011315,61.7375728 C14.5184646,61.6373981 15.1275669,61.5788544 15.838622,61.5619417 L15.838622,60.9088544 C15.838622,60.3305728 15.7131417,59.8856408 15.4628346,59.5740583 C15.2125276,59.2624757 14.841315,59.1063592 14.3491969,59.1063592 C14.0459528,59.1063592 13.7884567,59.1479903 13.5760551,59.2319029 C13.3636535,59.315165 13.1839291,59.407534 13.0362283,59.5077087 C12.8891811,59.608534 12.7689291,59.7009029 12.6767795,59.784165 C12.5846299,59.8687282 12.5062047,59.9103592 12.4434646,59.9103592 C12.3591575,59.9103592 12.2957638,59.8719806 12.253937,59.7965243 L12.1467559,59.6143883 C12.4748346,59.2884951 12.8199055,59.0406602 13.1819685,58.8734854 C13.543378,58.7056602 13.9538031,58.6223981 14.411937,58.6223981 C14.7485118,58.6223981 15.0432598,58.6757379 15.2955276,58.7824175 C15.5477953,58.8890971 15.7575827,59.0419612 15.9235827,59.2410097 C16.0895827,59.4400583 16.215063,59.6807379 16.2993701,59.9630485 C16.3830236,60.2460097 16.4255039,60.5614951 16.4255039,60.9088544 L16.4255039,64.9789417 L16.1856535,64.9789417 L16.1856535,64.9789417 Z M13.6610157,64.6458932 C13.9054409,64.6458932 14.1289528,64.6198738 14.3335118,64.5671845 C14.5374173,64.5144951 14.7269449,64.4416408 14.9014409,64.3479709 C15.075937,64.2536505 15.2386693,64.1411165 15.3902913,64.0116699 C15.5419134,63.8815728 15.6909213,63.7417184 15.838622,63.5908058 L15.838622,61.9639417 C15.2412835,61.9808544 14.7269449,62.0257379 14.2956063,62.0985922 C13.8642677,62.1720971 13.5087402,62.2716214 13.2290236,62.397165 C12.9493071,62.5227087 12.7434409,62.6723204 12.6107717,62.8466505 C12.4781024,63.0203301 12.4114409,63.2180777 12.4114409,63.4405437 C12.4114409,63.6493495 12.4467323,63.830835 12.5160079,63.983699 C12.5852835,64.1365631 12.6767795,64.2614563 12.7904961,64.3603301 C12.9035591,64.4585534 13.0362283,64.5307573 13.1878504,64.5762913 C13.3394724,64.6224757 13.4976299,64.6458932 13.6610157,64.6458932 L13.6610157,64.6458932 Z" id="Fill-6" fill="#6B818D" sketch:type="MSShapeGroup"></path>
                <path d="M18.3188189,64.9789417 L18.3188189,58.7290777 L18.6344803,58.7290777 C18.7057165,58.7290777 18.7573465,58.7440388 18.7887165,58.7733107 C18.8200866,58.8025825 18.8383858,58.8526699 18.8423071,58.9235728 L18.8932835,60.2427573 C19.0952283,59.7360291 19.3644882,59.339233 19.701063,59.0523689 C20.0369843,58.7661553 20.4519843,58.6223981 20.9441024,58.6223981 C21.1329764,58.6223981 21.308126,58.6425631 21.4675906,58.6822427 C21.6277087,58.7219223 21.7793307,58.779165 21.9224567,58.8552718 L21.8401102,59.2689806 C21.8276929,59.3366311 21.7852126,59.3698058 21.7139764,59.3698058 C21.6884882,59.3698058 21.6525433,59.3613495 21.6067953,59.3444369 C21.5603937,59.3275243 21.5028819,59.3093107 21.4329528,59.2884951 C21.3636772,59.2670291 21.2787165,59.2488155 21.1774173,59.2319029 C21.0767717,59.2149903 20.9610945,59.206534 20.8303858,59.206534 C20.3546063,59.206534 19.9644409,59.3535437 19.6598898,59.6462621 C19.354685,59.9396311 19.1076457,60.3624466 18.9181181,60.9153592 L18.9181181,64.9789417 L18.3188189,64.9789417" id="Fill-7" fill="#6B818D" sketch:type="MSShapeGroup"></path>
                <path d="M25.0398583,65.0791165 C24.6144016,65.0791165 24.2843622,64.9620291 24.0484331,64.7278544 C23.8125039,64.4930291 23.6948661,64.1307087 23.6948661,63.6408932 L23.6948661,59.3698058 L22.7929764,59.3698058 C22.7465748,59.3698058 22.7086693,59.3567961 22.6792598,59.3320777 C22.6498504,59.3073592 22.6348189,59.2715825 22.6348189,59.2253981 L22.6348189,58.9931748 L23.707937,58.917068 L23.8575984,56.6813495 C23.8615197,56.6436214 23.8772047,56.6104466 23.9046535,56.5811748 C23.9314488,56.5519029 23.9680472,56.5369417 24.0137953,56.5369417 L24.2948189,56.5369417 L24.2948189,58.9235728 L26.2698268,58.9235728 L26.2698268,59.3698058 L24.2948189,59.3698058 L24.2948189,63.6090194 C24.2948189,63.7813981 24.3170394,63.9290583 24.3608268,64.0526505 C24.4052677,64.1762427 24.4660472,64.277068 24.5438189,64.3570777 C24.6215906,64.4370874 24.7137402,64.4956311 24.8189606,64.5327087 C24.9235276,64.5704369 25.0372441,64.5899515 25.1594567,64.5899515 C25.3110787,64.5899515 25.4411339,64.5671845 25.5502756,64.5236019 C25.6600709,64.4793689 25.7541811,64.431233 25.8345669,64.3791942 C25.9142992,64.3265049 25.9796535,64.2783689 26.0299764,64.2347864 C26.0809528,64.1905534 26.1208189,64.1684369 26.1502283,64.1684369 C26.1835591,64.1684369 26.2168898,64.1899029 26.250874,64.231534 L26.4149134,64.4956311 C26.2554488,64.6712621 26.0521969,64.8124175 25.8064646,64.9190971 C25.5600787,65.0264272 25.3045433,65.0791165 25.0398583,65.0791165" id="Fill-8" fill="#6B818D" sketch:type="MSShapeGroup"></path>
                <path d="M32.0183937,58.980165 C32.0183937,59.0679806 31.9896378,59.1479903 31.9308189,59.2188932 L27.9991024,64.5079903 L31.8608898,64.5079903 L31.8608898,64.9789417 L27.2730157,64.9789417 L27.2730157,64.7402136 C27.2730157,64.6686602 27.3043858,64.5912524 27.3677795,64.5079903 L31.3119134,59.2006796 L27.4814961,59.2006796 L27.4814961,58.7290777 L32.0183937,58.7290777 L32.0183937,58.980165" id="Fill-9" fill="#6B818D" sketch:type="MSShapeGroup"></path>
                <path d="M35.8997874,58.6282524 C36.2533543,58.6282524 36.580126,58.6893981 36.8814094,58.8103883 C37.1820394,58.9320291 37.4428031,59.1096117 37.6637008,59.3411845 C37.8845984,59.5740583 38.0571339,59.8596214 38.1813071,60.1991748 C38.3054803,60.5380777 38.3675669,60.927068 38.3675669,61.3674466 C38.3675669,61.459165 38.3538425,61.5222621 38.3263937,61.5554369 C38.2989449,61.5892621 38.255811,61.6061748 38.1976457,61.6061748 L33.6659764,61.6061748 L33.6659764,61.7252136 C33.6659764,62.1942136 33.720874,62.6072718 33.8300157,62.9624369 C33.939811,63.3189029 34.0953543,63.6168252 34.2972992,63.8575049 C34.4992441,64.0981845 34.7430157,64.2796699 35.0292677,64.4006602 C35.3155197,64.522301 35.6351024,64.5834466 35.9880157,64.5834466 C36.3036772,64.5834466 36.5775118,64.5483204 36.8088661,64.4793689 C37.0402205,64.4104175 37.2343228,64.3330097 37.3924803,64.2471456 C37.5506378,64.1612816 37.6754646,64.0838738 37.7676142,64.0149223 C37.8604173,63.9453204 37.9277323,63.9108447 37.9702126,63.9108447 C38.0244567,63.9108447 38.066937,63.9323107 38.0963465,63.9739417 L38.2603858,64.1749417 C38.1590866,64.3004854 38.0257638,64.4175728 37.8597638,64.5268544 C37.6931102,64.6361359 37.5081575,64.7291553 37.304252,64.8059126 C37.1003465,64.8833204 36.8814094,64.9451165 36.6480945,64.991301 C36.414126,65.0374854 36.1795039,65.0609029 35.9442283,65.0609029 C35.5148504,65.0609029 35.1240315,64.9860971 34.7704646,64.8371359 C34.4168976,64.6888252 34.1136535,64.4722136 33.8607323,64.187301 C33.607811,63.9030388 33.411748,63.5543786 33.2738504,63.1413204 C33.1352992,62.7295631 33.0666772,62.2573107 33.0666772,61.7252136 C33.0666772,61.2770291 33.1307244,60.8639709 33.2588189,60.4847379 C33.3869134,60.1061553 33.5725197,59.7796117 33.8143307,59.5051068 C34.0561417,59.2306019 34.3528504,59.0159417 34.7038031,58.8611262 C35.0554094,58.7056602 35.4540709,58.6282524 35.8997874,58.6282524 L35.8997874,58.6282524 Z M35.908937,59.0744854 C35.5854331,59.0744854 35.2959134,59.1252233 35.0397244,59.2253981 C34.7835354,59.3255728 34.5619843,59.4706311 34.3750709,59.6586214 C34.1881575,59.8472621 34.0365354,60.0729806 33.9215118,60.3370777 C33.8058346,60.6005243 33.7293701,60.8964951 33.6914646,61.2223883 L37.825126,61.2223883 C37.825126,60.8873883 37.7787244,60.5875146 37.6859213,60.321466 C37.5937717,60.0554175 37.4637165,59.8303495 37.2951024,59.6462621 C37.1271417,59.4615243 36.9258504,59.3210194 36.6905748,59.2221456 C36.4552992,59.1239223 36.1945354,59.0744854 35.908937,59.0744854 L35.908937,59.0744854 Z" id="Fill-10" fill="#6B818D" sketch:type="MSShapeGroup"></path>
                <path d="M40.1589291,55.8402718 L40.7588819,55.8402718 L40.7588819,64.9789417 L40.1589291,64.9789417 L40.1589291,55.8402718 Z" id="Fill-11" fill="#6B818D" sketch:type="MSShapeGroup"></path>
                <path d="M42.6227874,55.8402718 L43.2227402,55.8402718 L43.2227402,64.9789417 L42.6227874,64.9789417 L42.6227874,55.8402718 Z" id="Fill-12" fill="#6B818D" sketch:type="MSShapeGroup"></path>
                <path d="M44.5768819,64.4448932 C44.5768819,64.298534 44.6272047,64.1729903 44.7285039,64.0682621 C44.8291496,63.963534 44.9618189,63.9108447 45.1258583,63.9108447 C45.3068898,63.9108447 45.446748,63.9726408 45.5454331,64.096233 C45.6441181,64.2198252 45.6937874,64.3817961 45.6937874,64.5834466 C45.6937874,64.7551748 45.6715669,64.9295049 45.627126,65.1070874 C45.5833386,65.2859709 45.5192913,65.460301 45.4349843,65.6320291 C45.3506772,65.8037573 45.2500315,65.9696311 45.1323937,66.1283495 C45.0141024,66.2877184 44.8840472,66.4340777 44.7409213,66.5680777 L44.6461575,66.4737573 C44.6128268,66.439932 44.5958346,66.4048058 44.5958346,66.3670777 C44.5958346,66.3462621 44.6017165,66.3254466 44.6147874,66.3039806 C44.6272047,66.283165 44.6422362,66.264301 44.6585748,66.2473883 C44.7010551,66.2057573 44.7546457,66.1439612 44.82,66.062 C44.8847008,65.9806893 44.9500551,65.8844175 45.0154094,65.7731845 C45.0807638,65.6626019 45.1395827,65.5403107 45.1925197,65.4063107 C45.2448031,65.2723107 45.2794409,65.1298544 45.2964331,64.9789417 C45.2709449,64.9867476 45.2428425,64.9932524 45.2108189,64.9978058 C45.1794488,65.0017087 45.144811,65.0036602 45.1069055,65.0036602 C44.9513622,65.0036602 44.8239213,64.9516214 44.7252362,64.8475437 C44.6265512,64.742165 44.5768819,64.608165 44.5768819,64.4448932" id="Fill-13" fill="#6B818D" sketch:type="MSShapeGroup"></path>
                <path d="M50.1365748,64.9789417 L50.1365748,56.0907087 L52.705,56.0907087 C53.2141102,56.0907087 53.6545984,56.1414466 54.0271181,56.2416214 C54.3996378,56.3424466 54.7074567,56.4901068 54.9518819,56.6846019 C55.1956535,56.8790971 55.3773386,57.1165243 55.4975906,57.397534 C55.617189,57.6778932 55.677315,57.9959806 55.677315,58.3524466 C55.677315,58.5866214 55.6361417,58.8129903 55.5544488,59.0309029 C55.4721024,59.2488155 55.353811,59.449165 55.1976142,59.6332524 C55.0420709,59.8179903 54.8512362,59.9780097 54.6264173,60.1139612 C54.4015984,60.2499126 54.1434488,60.3533398 53.8539291,60.4248932 C54.5558346,60.5296214 55.0969685,60.7624951 55.4753701,61.1222136 C55.8537717,61.4825825 56.0432992,61.9580874 56.0432992,62.5480777 C56.0432992,62.9253592 55.9759843,63.2642621 55.8413543,63.5654369 C55.7067244,63.8666117 55.511315,64.1229029 55.2544724,64.3323592 C54.9976299,64.541165 54.682622,64.7011845 54.3081417,64.8124175 C53.9336614,64.9236505 53.5082047,64.9789417 53.0330787,64.9789417 L50.1365748,64.9789417 L50.1365748,64.9789417 Z M50.780315,60.2486117 L52.7174173,60.2486117 C53.1298031,60.2486117 53.482063,60.1972233 53.7748504,60.0924951 C54.0669843,59.987767 54.3068346,59.8492136 54.493748,59.6774854 C54.681315,59.5057573 54.8192126,59.3112621 54.9074409,59.0933495 C54.9956693,58.8754369 55.0394567,58.6516699 55.0394567,58.4213981 C55.0394567,57.8229515 54.8492756,57.3695631 54.4689134,57.061233 C54.0878976,56.7535534 53.5003622,56.6000388 52.705,56.6000388 L50.780315,56.6000388 L50.780315,60.2486117 L50.780315,60.2486117 Z M50.780315,60.7202136 L50.780315,64.4637573 L53.0206614,64.4637573 C53.806874,64.4637573 54.4002913,64.2952816 54.8002598,63.9576796 C55.1995748,63.6213786 55.3995591,63.1471748 55.3995591,62.535068 C55.3995591,62.2553592 55.3459685,62.0029709 55.2387874,61.7785534 C55.1309528,61.5547864 54.9767165,61.3641942 54.7747717,61.2067767 C54.5728268,61.0506602 54.3244803,60.9296699 54.0303858,60.8457573 C53.7356378,60.7624951 53.4010236,60.7202136 53.0265433,60.7202136 L50.780315,60.7202136 L50.780315,60.7202136 Z" id="Fill-14" fill="#6B818D" sketch:type="MSShapeGroup"></path>
                <path d="M58.9652913,56.5746699 C58.9652913,56.6501262 58.9489528,56.7203786 58.9175827,56.7847767 C58.8862126,56.8498252 58.8450394,56.9077184 58.7947165,56.9578058 C58.7443937,57.0085437 58.6849213,57.0482233 58.6182598,57.0774951 C58.5509449,57.106767 58.4790551,57.1210777 58.4032441,57.1210777 C58.3274331,57.1210777 58.2561969,57.106767 58.1888819,57.0774951 C58.1215669,57.0482233 58.062748,57.0085437 58.0124252,56.9578058 C57.9614488,56.9077184 57.9215827,56.8498252 57.8921732,56.7847767 C57.8627638,56.7203786 57.8477323,56.6501262 57.8477323,56.5746699 C57.8477323,56.4992136 57.8627638,56.4270097 57.8921732,56.3580583 C57.9215827,56.2891068 57.9614488,56.2292621 58.0124252,56.1785243 C58.062748,56.1290874 58.1215669,56.0887573 58.1888819,56.0594854 C58.2561969,56.0302136 58.3274331,56.0159029 58.4032441,56.0159029 C58.4790551,56.0159029 58.5509449,56.0302136 58.6182598,56.0594854 C58.6849213,56.0887573 58.7443937,56.1290874 58.7947165,56.1785243 C58.8450394,56.2292621 58.8862126,56.2891068 58.9175827,56.3580583 C58.9489528,56.4270097 58.9652913,56.4992136 58.9652913,56.5746699 L58.9652913,56.5746699 Z M58.1006535,58.7290777 L58.7006063,58.7290777 L58.7006063,64.9789417 L58.1006535,64.9789417 L58.1006535,58.7290777 Z" id="Fill-15" fill="#6B818D" sketch:type="MSShapeGroup"></path>
                <path d="M65.0543543,59.5649515 C65.0334409,59.5851165 65.0138346,59.6033301 64.9948819,59.6176408 C64.9759291,59.6326019 64.9491339,59.6404078 64.9158031,59.6404078 C64.8739764,59.6404078 64.815811,59.6117864 64.7426142,59.5551942 C64.6687638,59.4986019 64.5707323,59.4368058 64.4491732,59.3698058 C64.3269606,59.3028058 64.1740315,59.2410097 63.9910394,59.1844175 C63.8087008,59.1284757 63.5864961,59.0992039 63.3257323,59.0992039 C62.9636693,59.0992039 62.6427795,59.1636019 62.363063,59.2917476 C62.0833465,59.4185922 61.8474173,59.6020291 61.6565827,59.8407573 C61.4650945,60.0794854 61.3187008,60.3689515 61.2180551,60.7078544 C61.1167559,61.0467573 61.0664331,61.4279417 61.0664331,61.8514078 C61.0664331,62.2911359 61.118063,62.6801262 61.2206693,63.0190291 C61.3239291,63.3585825 61.4703228,63.6441456 61.6598504,63.8770194 C61.8487244,64.1085922 62.0781181,64.2861748 62.347378,64.4078155 C62.6166378,64.5288058 62.9153071,64.5899515 63.2433858,64.5899515 C63.5466299,64.5899515 63.8002047,64.5541748 64.0041102,64.4826214 C64.2080157,64.411068 64.3766299,64.3343107 64.5086457,64.2503981 C64.641315,64.1671359 64.7465354,64.0890777 64.8243071,64.0175243 C64.9020787,63.9466214 64.9641654,63.9108447 65.0105669,63.9108447 C65.0654646,63.9108447 65.1072913,63.9323107 65.1367008,63.9739417 L65.3007402,64.1749417 C65.2040157,64.3004854 65.0818031,64.4175728 64.9347559,64.5268544 C64.7870551,64.6361359 64.6210551,64.7298058 64.4361024,64.809165 C64.2511496,64.8891748 64.0498583,64.9509709 63.8335354,64.9945534 C63.6172126,65.0387864 63.3904331,65.0609029 63.1551575,65.0609029 C62.7558425,65.0609029 62.3905118,64.9880485 62.0604724,64.8436408 C61.7297795,64.699233 61.4461417,64.4897767 61.208252,64.2152718 C60.9710157,63.9414175 60.7854094,63.605767 60.6527402,63.2076699 C60.5200709,62.8095728 60.454063,62.3574854 60.454063,61.8514078 C60.454063,61.373301 60.5174567,60.9381262 60.6435906,60.5445825 C60.7697244,60.1510388 60.9533701,59.8114854 61.1958346,59.5265728 C61.4376457,59.2423107 61.7343543,59.0217961 62.0853071,58.8643786 C62.4369134,58.7069612 62.8394961,58.6282524 63.2943622,58.6282524 C63.7021732,58.6282524 64.0648898,58.693301 64.3825118,58.8233981 C64.7001339,58.9528447 64.9772362,59.1284757 65.2125118,59.3509417 L65.0543543,59.5649515" id="Fill-16" fill="#6B818D" sketch:type="MSShapeGroup"></path>
                <path d="M67.3267244,55.8402718 L67.3267244,61.4116796 L67.6168976,61.4116796 C67.6757165,61.4116796 67.7312677,61.4025728 67.7835512,61.3856602 C67.8364882,61.3693981 67.8946535,61.3297184 67.9573937,61.2666214 L70.4754961,58.8858447 C70.5218976,58.8403107 70.5696063,58.8025825 70.617315,58.7733107 C70.6663307,58.7440388 70.7271102,58.7290777 70.8035748,58.7290777 L71.3335984,58.7290777 L68.5632283,61.3485825 C68.5214016,61.3902136 68.4815354,61.4285922 68.4436299,61.4643689 C68.4050709,61.5001456 68.3638976,61.5307184 68.3174961,61.5554369 C68.3841575,61.5892621 68.4416693,61.6289417 68.4880709,61.6751262 C68.5338189,61.7213107 68.5815276,61.7713981 68.6331575,61.8253883 L71.5420787,64.9789417 L71.017937,64.9789417 C70.9591181,64.9789417 70.9061811,64.9678835 70.8604331,64.944466 C70.8140315,64.921699 70.7676299,64.8846214 70.7212283,64.8338835 L68.0835276,62.020534 C68.0122913,61.9450777 67.946937,61.8943398 67.8881181,61.8670194 C67.8286457,61.8390485 67.7364961,61.8253883 67.6103622,61.8253883 L67.3267244,61.8253883 L67.3267244,64.9789417 L66.7267717,64.9789417 L66.7267717,55.8402718 L67.3267244,55.8402718" id="Fill-17" fill="#6B818D" sketch:type="MSShapeGroup"></path>
                <path d="M73.1066614,64.9789417 L73.1066614,59.3828155 L72.2230709,59.3255728 C72.1008583,59.317767 72.0400787,59.2650777 72.0400787,59.1688058 L72.0400787,58.9235728 L73.1066614,58.9235728 L73.1066614,58.131932 C73.1066614,57.776767 73.153063,57.463233 73.2458661,57.1932816 C73.3380157,56.9233301 73.4687244,56.6982621 73.636685,56.5180777 C73.8052992,56.3385437 74.0085512,56.2032427 74.2457874,56.1134757 C74.4830236,56.0230583 74.7450945,55.9781748 75.0313465,55.9781748 C75.1620551,55.9781748 75.2934173,55.9898835 75.4254331,56.012 C75.5587559,56.0354175 75.6750866,56.0685922 75.7757323,56.1102233 L75.7567795,56.3990388 C75.7528583,56.4575825 75.7136457,56.4868544 75.6378346,56.4868544 C75.5868583,56.4868544 75.5182362,56.4803495 75.4319685,56.4679903 C75.3463543,56.4549806 75.2398268,56.4484757 75.1136929,56.4484757 C74.9071732,56.4484757 74.7169921,56.4790485 74.5424961,56.5401942 C74.368,56.6013398 74.217685,56.6982621 74.0908976,56.8322621 C73.9647638,56.9662621 73.8673858,57.1412427 73.7974567,57.3565534 C73.7281811,57.5725146 73.6935433,57.8372621 73.6935433,58.1514466 L73.6935433,58.9235728 L75.7319449,58.9235728 L75.7319449,59.3698058 L73.7066142,59.3698058 L73.7066142,64.9789417 L73.1066614,64.9789417" id="Fill-18" fill="#6B818D" sketch:type="MSShapeGroup"></path>
                <path d="M79.3290472,58.6282524 C79.7793386,58.6282524 80.1825748,58.7050097 80.5374488,58.8578738 C80.8929764,59.0107379 81.1929528,59.2273495 81.4367244,59.5077087 C81.6811496,59.7887184 81.8674094,60.1263204 81.9955039,60.522466 C82.1235984,60.9179612 82.1882992,61.3609417 82.1882992,61.8514078 C82.1882992,62.3405728 82.1235984,62.7829029 81.9955039,63.1764466 C81.8674094,63.5699903 81.6811496,63.9069417 81.4367244,64.187301 C81.1929528,64.4683107 80.8929764,64.6836214 80.5374488,64.8338835 C80.1825748,64.9847961 79.7793386,65.0609029 79.3290472,65.0609029 C78.8787559,65.0609029 78.4761732,64.9847961 78.1206457,64.8338835 C77.7644646,64.6836214 77.4638346,64.4683107 77.2187559,64.187301 C76.9717165,63.9069417 76.7848031,63.5699903 76.6560551,63.1764466 C76.5279606,62.7829029 76.4639134,62.3405728 76.4639134,61.8514078 C76.4639134,61.3609417 76.5279606,60.9179612 76.6560551,60.522466 C76.7848031,60.1263204 76.9717165,59.7887184 77.2187559,59.5077087 C77.4638346,59.2273495 77.7644646,59.0107379 78.1206457,58.8578738 C78.4761732,58.7050097 78.8787559,58.6282524 79.3290472,58.6282524 L79.3290472,58.6282524 Z M79.3290472,64.5899515 C79.7035276,64.5899515 80.0302992,64.5255534 80.3106693,64.3974078 C80.5903858,64.2705631 80.8237008,64.0871262 81.0106142,63.8483981 C81.1981811,63.6090194 81.3373858,63.3215049 81.430189,62.9845534 C81.5229921,62.6476019 81.5693937,62.2696699 81.5693937,61.8514078 C81.5693937,61.4363981 81.5229921,61.059767 81.430189,60.7202136 C81.3373858,60.3813107 81.1981811,60.0911942 81.0106142,59.8505146 C80.8237008,59.609835 80.5903858,59.4244466 80.3106693,59.2943495 C80.0302992,59.1649029 79.7035276,59.0992039 79.3290472,59.0992039 C78.9545669,59.0992039 78.6277953,59.1649029 78.3474252,59.2943495 C78.0683622,59.4244466 77.8343937,59.609835 77.6474803,59.8505146 C77.4605669,60.0911942 77.3194016,60.3813107 77.2246378,60.7202136 C77.129874,61.059767 77.0821654,61.4363981 77.0821654,61.8514078 C77.0821654,62.2696699 77.129874,62.6476019 77.2246378,62.9845534 C77.3194016,63.3215049 77.4605669,63.6090194 77.6474803,63.8483981 C77.8343937,64.0871262 78.0683622,64.2705631 78.3474252,64.3974078 C78.6277953,64.5255534 78.9545669,64.5899515 79.3290472,64.5899515 L79.3290472,64.5899515 Z" id="Fill-19" fill="#6B818D" sketch:type="MSShapeGroup"></path>
                <path d="M83.7659528,64.9789417 L83.7659528,58.7290777 L84.0809606,58.7290777 C84.1521969,58.7290777 84.2038268,58.7440388 84.2358504,58.7733107 C84.2672205,58.8025825 84.2855197,58.8526699 84.2887874,58.9235728 L84.3397638,60.2427573 C84.5417087,59.7360291 84.8109685,59.339233 85.1475433,59.0523689 C85.4841181,58.7661553 85.8991181,58.6223981 86.3905827,58.6223981 C86.5801102,58.6223981 86.7546063,58.6425631 86.9147244,58.6822427 C87.074189,58.7219223 87.225811,58.779165 87.368937,58.8552718 L87.2865906,59.2689806 C87.2741732,59.3366311 87.2323465,59.3698058 87.1611102,59.3698058 C87.135622,59.3698058 87.0996772,59.3613495 87.0539291,59.3444369 C87.0075276,59.3275243 86.9493622,59.3093107 86.8800866,59.2884951 C86.810811,59.2670291 86.7251969,59.2488155 86.6245512,59.2319029 C86.5239055,59.2149903 86.4075748,59.206534 86.2775197,59.206534 C85.8017402,59.206534 85.4115748,59.3535437 85.1070236,59.6462621 C84.8018189,59.9396311 84.554126,60.3624466 84.3645984,60.9153592 L84.3645984,64.9789417 L83.7659528,64.9789417" id="Fill-20" fill="#6B818D" sketch:type="MSShapeGroup"></path>
                <path d="M93.2292598,64.9789417 C93.1253465,64.9789417 93.0645669,64.924301 93.0488819,64.8156699 L92.9848346,63.829534 C92.7070787,64.206165 92.3809606,64.5053883 92.0084409,64.7278544 C91.6352677,64.9496699 91.2176535,65.0609029 90.7549449,65.0609029 C89.9837638,65.0609029 89.3825039,64.7948544 88.9505118,64.2627573 C88.5185197,63.7306602 88.3021969,62.933165 88.3021969,61.8696214 C88.3021969,61.4129806 88.3629764,60.9875631 88.4832283,60.5914175 C88.6028268,60.1959223 88.779937,59.852466 89.0139055,59.561699 C89.247874,59.2702816 89.534126,59.0406602 89.8726614,58.8734854 C90.2118504,58.7056602 90.6026693,58.6223981 91.0451181,58.6223981 C91.4705748,58.6223981 91.8391732,58.7011068 92.1509134,58.8578738 C92.4626535,59.0146408 92.7319134,59.2442621 92.96,59.5454369 L92.96,55.8402718 L93.5592992,55.8402718 L93.5592992,64.9789417 L93.2292598,64.9789417 L93.2292598,64.9789417 Z M90.9248661,64.5762913 C91.3418268,64.5762913 91.7189213,64.4702621 92.0561496,64.2569029 C92.3927244,64.0428932 92.6946614,63.7456214 92.96,63.3650874 L92.96,60.0664757 C92.7155748,59.7113107 92.4469685,59.4602233 92.1541811,59.3132136 C91.8613937,59.1668544 91.5293937,59.0933495 91.1588346,59.0933495 C90.787622,59.0933495 90.462811,59.1603495 90.1857087,59.2943495 C89.9072992,59.429 89.6739843,59.6176408 89.4870709,59.8628738 C89.2995039,60.1081068 89.157685,60.4008252 89.0635748,60.7423301 C88.968811,61.0831845 88.9211024,61.459165 88.9211024,61.8696214 C88.9211024,62.799165 89.0942913,63.4828252 89.4393622,63.9206019 C89.7850866,64.3583786 90.2798189,64.5762913 90.9248661,64.5762913 L90.9248661,64.5762913 Z" id="Fill-21" fill="#6B818D" sketch:type="MSShapeGroup"></path>
                <path d="M95.3388976,64.4448932 C95.3388976,64.298534 95.3892205,64.1729903 95.4905197,64.0682621 C95.5911654,63.963534 95.7231811,63.9108447 95.887874,63.9108447 C96.0689055,63.9108447 96.2087638,63.9726408 96.3074488,64.096233 C96.4061339,64.2198252 96.4551496,64.3817961 96.4551496,64.5834466 C96.4551496,64.7551748 96.4335827,64.9295049 96.3897953,65.1070874 C96.3453543,65.2859709 96.2813071,65.460301 96.1963465,65.6320291 C96.1126929,65.8037573 96.0120472,65.9696311 95.8944094,66.1283495 C95.7761181,66.2877184 95.646063,66.4340777 95.502937,66.5680777 L95.4081732,66.4737573 C95.3748425,66.439932 95.3578504,66.4048058 95.3578504,66.3670777 C95.3578504,66.3462621 95.3637323,66.3254466 95.3768031,66.3039806 C95.3892205,66.283165 95.404252,66.264301 95.4212441,66.2473883 C95.4630709,66.2057573 95.5160079,66.1439612 95.5820157,66.062 C95.6467165,65.9806893 95.7120709,65.8844175 95.7774252,65.7731845 C95.8427795,65.6626019 95.9015984,65.5403107 95.9538819,65.4063107 C96.0068189,65.2723107 96.0414567,65.1298544 96.0584488,64.9789417 C96.0329606,64.9867476 96.0042047,64.9932524 95.9728346,64.9978058 C95.9414646,65.0017087 95.9068268,65.0036602 95.8689213,65.0036602 C95.7127244,65.0036602 95.585937,64.9516214 95.4865984,64.8475437 C95.3885669,64.742165 95.3388976,64.608165 95.3388976,64.4448932" id="Fill-22" fill="#6B818D" sketch:type="MSShapeGroup"></path>
                <path d="M104.602874,64.9789417 C104.476087,64.9789417 104.398315,64.9203981 104.368906,64.8033107 L104.280677,64.005165 C104.108142,64.1729903 103.93626,64.3232524 103.766339,64.4572524 C103.595764,64.5912524 103.418654,64.7044369 103.233047,64.7968058 C103.048094,64.8891748 102.84811,64.9587767 102.633094,65.0069126 C102.418732,65.0550485 102.183457,65.0791165 101.927268,65.0791165 C101.712252,65.0791165 101.504425,65.0478932 101.301827,64.9847961 C101.099882,64.9223495 100.921465,64.8260777 100.765268,64.6966311 C100.609724,64.566534 100.484244,64.4000097 100.390134,64.1970583 C100.29537,63.9941068 100.248315,63.7501748 100.248315,63.4652621 C100.248315,63.201165 100.323472,62.9565825 100.475094,62.7302136 C100.626717,62.5038447 100.863299,62.3067476 101.184843,62.1395728 C101.507039,61.9723981 101.921386,61.8377476 102.428535,61.7375728 C102.935031,61.6373981 103.544134,61.5788544 104.255189,61.5619417 L104.255189,60.9088544 C104.255189,60.3305728 104.130362,59.8856408 103.880055,59.5740583 C103.629748,59.2624757 103.258535,59.1063592 102.765764,59.1063592 C102.463173,59.1063592 102.205024,59.1479903 101.992622,59.2319029 C101.78022,59.315165 101.600496,59.407534 101.453449,59.5077087 C101.305748,59.608534 101.18615,59.7009029 101.093346,59.784165 C101.000543,59.8687282 100.923425,59.9103592 100.860685,59.9103592 C100.775724,59.9103592 100.712984,59.8719806 100.670504,59.7965243 L100.563323,59.6143883 C100.892055,59.2884951 101.236472,59.0406602 101.598535,58.8734854 C101.959945,58.7056602 102.37037,58.6223981 102.829157,58.6223981 C103.165732,58.6223981 103.46048,58.6757379 103.712748,58.7824175 C103.965016,58.8890971 104.17415,59.0419612 104.340803,59.2410097 C104.506803,59.4400583 104.63163,59.6807379 104.715937,59.9630485 C104.800244,60.2460097 104.842071,60.5614951 104.842071,60.9088544 L104.842071,64.9789417 L104.602874,64.9789417 L104.602874,64.9789417 Z M102.078236,64.6458932 C102.322661,64.6458932 102.546173,64.6198738 102.750079,64.5671845 C102.953984,64.5144951 103.144165,64.4416408 103.318008,64.3479709 C103.493157,64.2536505 103.65589,64.1411165 103.807512,64.0116699 C103.95848,63.8815728 104.108142,63.7417184 104.255189,63.5908058 L104.255189,61.9639417 C103.65785,61.9808544 103.144165,62.0257379 102.712173,62.0985922 C102.280835,62.1720971 101.925961,62.2716214 101.645591,62.397165 C101.366528,62.5227087 101.160008,62.6723204 101.027339,62.8466505 C100.895323,63.0203301 100.828661,63.2180777 100.828661,63.4405437 C100.828661,63.6493495 100.863299,63.830835 100.932575,63.983699 C101.00185,64.1365631 101.093346,64.2614563 101.207063,64.3603301 C101.32078,64.4585534 101.453449,64.5307573 101.605071,64.5762913 C101.756693,64.6224757 101.913543,64.6458932 102.078236,64.6458932 L102.078236,64.6458932 Z" id="Fill-23" fill="#6B818D" sketch:type="MSShapeGroup"></path>
                <path d="M106.736039,64.9789417 L106.736039,58.7290777 L107.064118,58.7290777 C107.17326,58.7290777 107.236654,58.7811165 107.252992,58.8858447 L107.310504,59.8283981 C107.596102,59.4680291 107.930063,59.1779126 108.310425,58.958699 C108.691441,58.7381845 109.114937,58.6282524 109.58222,58.6282524 C109.926638,58.6282524 110.231189,58.6828932 110.493913,58.7921748 C110.756638,58.9014563 110.974921,59.0575728 111.146803,59.2631262 C111.319339,59.4680291 111.450047,59.7152136 111.538276,60.0046796 C111.627157,60.2928447 111.670945,60.6200388 111.670945,60.9843107 L111.670945,64.9789417 L111.070992,64.9789417 L111.070992,60.9843107 C111.070992,60.3982233 110.936362,59.9383301 110.667756,59.6052816 C110.398496,59.272233 109.98611,59.1063592 109.430598,59.1063592 C109.018213,59.1063592 108.635236,59.2117379 108.282323,59.4231456 C107.928756,59.6345534 107.613094,59.9246699 107.335339,60.2928447 L107.335339,64.9789417 L106.736039,64.9789417" id="Fill-24" fill="#6B818D" sketch:type="MSShapeGroup"></path>
                <path d="M118.01685,64.9789417 C117.912283,64.9789417 117.852157,64.924301 117.836472,64.8156699 L117.772425,63.829534 C117.494669,64.206165 117.168551,64.5053883 116.796031,64.7278544 C116.422858,64.9496699 116.005244,65.0609029 115.541882,65.0609029 C114.771354,65.0609029 114.170094,64.7948544 113.738102,64.2627573 C113.30611,63.7306602 113.089787,62.933165 113.089787,61.8696214 C113.089787,61.4129806 113.150567,60.9875631 113.270819,60.5914175 C113.390417,60.1959223 113.567528,59.852466 113.801496,59.561699 C114.034811,59.2702816 114.321717,59.0406602 114.660252,58.8734854 C114.999441,58.7056602 115.39026,58.6223981 115.832709,58.6223981 C116.258165,58.6223981 116.626764,58.7011068 116.938504,58.8578738 C117.250244,59.0146408 117.519504,59.2442621 117.747591,59.5454369 L117.747591,55.8402718 L118.34689,55.8402718 L118.34689,64.9789417 L118.01685,64.9789417 L118.01685,64.9789417 Z M115.712457,64.5762913 C116.129417,64.5762913 116.506512,64.4702621 116.84374,64.2569029 C117.180315,64.0428932 117.482252,63.7456214 117.747591,63.3650874 L117.747591,60.0664757 C117.503165,59.7113107 117.234559,59.4602233 116.941772,59.3132136 C116.648984,59.1668544 116.316984,59.0933495 115.946425,59.0933495 C115.575213,59.0933495 115.250402,59.1603495 114.973299,59.2943495 C114.69489,59.429 114.461575,59.6176408 114.274008,59.8628738 C114.087094,60.1081068 113.945276,60.4008252 113.851165,60.7423301 C113.756402,61.0831845 113.708693,61.459165 113.708693,61.8696214 C113.708693,62.799165 113.881228,63.4828252 114.226953,63.9206019 C114.572677,64.3583786 115.067409,64.5762913 115.712457,64.5762913 L115.712457,64.5762913 Z" id="Fill-25" fill="#6B818D" sketch:type="MSShapeGroup"></path>
                <path d="M129.681291,63.4841262 C129.723118,63.4841262 129.758409,63.4990874 129.787819,63.5283592 L130.04074,63.7983107 C129.855787,63.9947573 129.653189,64.1716893 129.434252,64.3291068 C129.215969,64.4852233 128.977425,64.6198738 128.717969,64.7304563 C128.459819,64.8416893 128.176181,64.9275534 127.867055,64.9880485 C127.557276,65.0485437 127.218087,65.0791165 126.847528,65.0791165 C126.228622,65.0791165 125.661346,64.9711359 125.147008,64.7558252 C124.630709,64.5405146 124.189567,64.2347864 123.821622,63.8386408 C123.453024,63.4431456 123.166118,62.9650388 122.959598,62.4036699 C122.753732,61.842301 122.651126,61.2184854 122.651126,60.5322233 C122.651126,59.8576699 122.757,59.2423107 122.969402,58.6854951 C123.181803,58.1280291 123.480472,57.6499223 123.866063,57.2498738 C124.250346,56.8498252 124.711094,56.5401942 125.247654,56.3203301 C125.784213,56.100466 126.376323,55.990534 127.023984,55.990534 C127.348142,55.990534 127.644197,56.0146019 127.91411,56.0627379 C128.18337,56.1108738 128.434331,56.1798252 128.668299,56.2695922 C128.901614,56.3600097 129.121205,56.4718932 129.327724,56.6058932 C129.533591,56.7398932 129.735535,56.8947087 129.933559,57.0703398 L129.73815,57.3539515 C129.704165,57.4040388 129.651228,57.4294078 129.579992,57.4294078 C129.541433,57.4294078 129.493724,57.4066408 129.434252,57.3630583 C129.375433,57.3188252 129.300929,57.264835 129.21074,57.1997864 C129.119898,57.1347379 129.011409,57.063835 128.882661,56.9857767 C128.754567,56.9083689 128.601638,56.837466 128.425181,56.7724175 C128.248724,56.7073689 128.044165,56.6533786 127.812811,56.6091456 C127.58211,56.5655631 127.318732,56.5427961 127.023984,56.5427961 C126.481543,56.5427961 125.98289,56.636466 125.528024,56.8231553 C125.073811,57.0085437 124.682992,57.2752427 124.354913,57.6206505 C124.026181,57.9660583 123.770646,58.3849709 123.587654,58.8767379 C123.404661,59.3685049 123.313165,59.9201165 123.313165,60.5322233 C123.313165,61.1599417 123.404008,61.7213107 123.584386,62.2150291 C123.765417,62.7093981 124.015724,63.1270097 124.335961,63.4685146 C124.655543,63.8093689 125.033291,64.0715146 125.468551,64.2536505 C125.903811,64.4357864 126.376323,64.5268544 126.885433,64.5268544 C127.205016,64.5268544 127.489961,64.5053883 127.740268,64.4637573 C127.990575,64.4221262 128.221276,64.3590291 128.431063,64.2751165 C128.642157,64.1918544 128.837567,64.0890777 129.018598,63.9680874 C129.198976,63.8464466 129.378047,63.7039903 129.555157,63.5407184 C129.575417,63.5238058 129.595677,63.5101456 129.61463,63.4997379 C129.633583,63.4893301 129.655803,63.4841262 129.681291,63.4841262" id="Fill-26" fill="#6B818D" sketch:type="MSShapeGroup"></path>
                <path d="M134.135843,58.6282524 C134.489409,58.6282524 134.816835,58.6893981 135.117465,58.8103883 C135.418094,58.9320291 135.679512,59.1096117 135.900409,59.3411845 C136.121307,59.5740583 136.293843,59.8596214 136.417362,60.1991748 C136.541535,60.5380777 136.603622,60.927068 136.603622,61.3674466 C136.603622,61.459165 136.589898,61.5222621 136.563102,61.5554369 C136.535654,61.5892621 136.491866,61.6061748 136.433047,61.6061748 L131.902031,61.6061748 L131.902031,61.7252136 C131.902031,62.1942136 131.956929,62.6072718 132.066724,62.9624369 C132.175213,63.3189029 132.331409,63.6168252 132.533354,63.8575049 C132.734646,64.0981845 132.979724,64.2796699 133.265323,64.4006602 C133.551575,64.522301 133.871157,64.5834466 134.224724,64.5834466 C134.540386,64.5834466 134.813567,64.5483204 135.044921,64.4793689 C135.276276,64.4104175 135.471031,64.3330097 135.628535,64.2471456 C135.786693,64.1612816 135.91152,64.0838738 136.004323,64.0149223 C136.096472,63.9453204 136.163787,63.9108447 136.206268,63.9108447 C136.261165,63.9108447 136.302992,63.9323107 136.332402,63.9739417 L136.496441,64.1749417 C136.395795,64.3004854 136.261165,64.4175728 136.095819,64.5268544 C135.929819,64.6361359 135.744866,64.7291553 135.540307,64.8059126 C135.336402,64.8833204 135.117465,64.9451165 134.88415,64.991301 C134.650835,65.0374854 134.416213,65.0609029 134.180283,65.0609029 C133.751559,65.0609029 133.359433,64.9860971 133.00652,64.8371359 C132.652953,64.6888252 132.349709,64.4722136 132.097441,64.187301 C131.843866,63.9030388 131.647803,63.5543786 131.509906,63.1413204 C131.371354,62.7295631 131.302732,62.2573107 131.302732,61.7252136 C131.302732,61.2770291 131.367433,60.8639709 131.494874,60.4847379 C131.623622,60.1061553 131.808575,59.7796117 132.051039,59.5051068 C132.29285,59.2306019 132.588906,59.0159417 132.940512,58.8611262 C133.291465,58.7056602 133.690126,58.6282524 134.135843,58.6282524 L134.135843,58.6282524 Z M134.145646,59.0744854 C133.822142,59.0744854 133.531969,59.1252233 133.27578,59.2253981 C133.019591,59.3255728 132.798693,59.4706311 132.611126,59.6586214 C132.424213,59.8472621 132.273244,60.0729806 132.156913,60.3370777 C132.04189,60.6005243 131.965425,60.8964951 131.92752,61.2223883 L136.061181,61.2223883 C136.061181,60.8873883 136.01478,60.5875146 135.92263,60.321466 C135.829827,60.0554175 135.699772,59.8303495 135.531811,59.6462621 C135.36385,59.4615243 135.161906,59.3210194 134.92663,59.2221456 C134.691354,59.1239223 134.431244,59.0744854 134.145646,59.0744854 L134.145646,59.0744854 Z" id="Fill-27" fill="#6B818D" sketch:type="MSShapeGroup"></path>
                <path d="M138.219181,64.9789417 L138.219181,58.7290777 L138.546606,58.7290777 C138.656402,58.7290777 138.719142,58.7811165 138.736134,58.8858447 L138.792992,59.8283981 C139.078591,59.4680291 139.412551,59.1779126 139.792913,58.958699 C140.173929,58.7381845 140.598079,58.6282524 141.065362,58.6282524 C141.40978,58.6282524 141.713677,58.6828932 141.977055,58.7921748 C142.239126,58.9014563 142.457409,59.0575728 142.629945,59.2631262 C142.801827,59.4680291 142.933189,59.7152136 143.021417,60.0046796 C143.109646,60.2928447 143.153433,60.6200388 143.153433,60.9843107 L143.153433,64.9789417 L142.554134,64.9789417 L142.554134,60.9843107 C142.554134,60.3982233 142.419504,59.9383301 142.150244,59.6052816 C141.880984,59.272233 141.468598,59.1063592 140.91374,59.1063592 C140.501354,59.1063592 140.118378,59.2117379 139.764811,59.4231456 C139.411244,59.6345534 139.095583,59.9246699 138.817827,60.2928447 L138.817827,64.9789417 L138.219181,64.9789417" id="Fill-28" fill="#6B818D" sketch:type="MSShapeGroup"></path>
                <path d="M146.757071,65.0791165 C146.332268,65.0791165 146.002228,64.9620291 145.766299,64.7278544 C145.531024,64.4930291 145.413386,64.1307087 145.413386,63.6408932 L145.413386,59.3698058 L144.510189,59.3698058 C144.464441,59.3698058 144.426535,59.3567961 144.397126,59.3320777 C144.367717,59.3073592 144.353339,59.2715825 144.353339,59.2253981 L144.353339,58.9931748 L145.425803,58.917068 L145.575465,56.6813495 C145.580039,56.6436214 145.595071,56.6104466 145.62252,56.5811748 C145.649315,56.5519029 145.685913,56.5369417 145.731661,56.5369417 L146.012685,56.5369417 L146.012685,58.9235728 L147.987693,58.9235728 L147.987693,59.3698058 L146.012685,59.3698058 L146.012685,63.6090194 C146.012685,63.7813981 146.034906,63.9290583 146.078693,64.0526505 C146.123134,64.1762427 146.183913,64.277068 146.261685,64.3570777 C146.339457,64.4370874 146.430953,64.4956311 146.536173,64.5327087 C146.641394,64.5704369 146.754457,64.5899515 146.876669,64.5899515 C147.028945,64.5899515 147.159,64.5671845 147.268795,64.5236019 C147.377937,64.4793689 147.472047,64.431233 147.552433,64.3791942 C147.632165,64.3265049 147.69752,64.2783689 147.747843,64.2347864 C147.798819,64.1905534 147.838031,64.1684369 147.867441,64.1684369 C147.901425,64.1684369 147.935409,64.1899029 147.96874,64.231534 L148.13278,64.4956311 C147.973315,64.6712621 147.770063,64.8124175 147.523677,64.9190971 C147.277945,65.0264272 147.022409,65.0791165 146.757071,65.0791165" id="Fill-29" fill="#6B818D" sketch:type="MSShapeGroup"></path>
                <path d="M151.937709,58.6282524 C152.388,58.6282524 152.791236,58.7050097 153.14611,58.8578738 C153.501638,59.0107379 153.801614,59.2273495 154.045386,59.5077087 C154.289811,59.7887184 154.476071,60.1263204 154.604165,60.522466 C154.73226,60.9179612 154.796961,61.3609417 154.796961,61.8514078 C154.796961,62.3405728 154.73226,62.7829029 154.604165,63.1764466 C154.476071,63.5699903 154.289811,63.9069417 154.045386,64.187301 C153.801614,64.4683107 153.501638,64.6836214 153.14611,64.8338835 C152.791236,64.9847961 152.388,65.0609029 151.937709,65.0609029 C151.487417,65.0609029 151.084835,64.9847961 150.729307,64.8338835 C150.373126,64.6836214 150.072496,64.4683107 149.827417,64.187301 C149.581031,63.9069417 149.393465,63.5699903 149.26537,63.1764466 C149.136622,62.7829029 149.072575,62.3405728 149.072575,61.8514078 C149.072575,61.3609417 149.136622,60.9179612 149.26537,60.522466 C149.393465,60.1263204 149.581031,59.7887184 149.827417,59.5077087 C150.072496,59.2273495 150.373126,59.0107379 150.729307,58.8578738 C151.084835,58.7050097 151.487417,58.6282524 151.937709,58.6282524 L151.937709,58.6282524 Z M151.937709,64.5899515 C152.312189,64.5899515 152.639614,64.5255534 152.919331,64.3974078 C153.199047,64.2705631 153.432362,64.0871262 153.619276,63.8483981 C153.806843,63.6090194 153.946047,63.3215049 154.039504,62.9845534 C154.132307,62.6476019 154.178055,62.2696699 154.178055,61.8514078 C154.178055,61.4363981 154.132307,61.059767 154.039504,60.7202136 C153.946047,60.3813107 153.806843,60.0911942 153.619276,59.8505146 C153.432362,59.609835 153.199047,59.4244466 152.919331,59.2943495 C152.639614,59.1649029 152.312189,59.0992039 151.937709,59.0992039 C151.563228,59.0992039 151.236457,59.1649029 150.956087,59.2943495 C150.677024,59.4244466 150.443055,59.609835 150.256142,59.8505146 C150.069228,60.0911942 149.928063,60.3813107 149.833299,60.7202136 C149.738535,61.059767 149.690827,61.4363981 149.690827,61.8514078 C149.690827,62.2696699 149.738535,62.6476019 149.833299,62.9845534 C149.928063,63.3215049 150.069228,63.6090194 150.256142,63.8483981 C150.443055,64.0871262 150.677024,64.2705631 150.956087,64.3974078 C151.236457,64.5255534 151.563228,64.5899515 151.937709,64.5899515 L151.937709,64.5899515 Z" id="Fill-30" fill="#6B818D" sketch:type="MSShapeGroup"></path>
                <path d="M156.551724,55.8402718 L157.15037,55.8402718 L157.15037,64.9789417 L156.551724,64.9789417 L156.551724,55.8402718 Z" id="Fill-31" fill="#6B818D" sketch:type="MSShapeGroup"></path>
                <path d="M163.379291,64.9789417 C163.253157,64.9789417 163.175386,64.9203981 163.145976,64.8033107 L163.057748,64.005165 C162.885213,64.1729903 162.713331,64.3232524 162.542756,64.4572524 C162.372181,64.5912524 162.195071,64.7044369 162.009465,64.7968058 C161.825165,64.8891748 161.625181,64.9587767 161.410165,65.0069126 C161.195803,65.0550485 160.959874,65.0791165 160.703685,65.0791165 C160.488669,65.0791165 160.280843,65.0478932 160.078244,64.9847961 C159.876953,64.9223495 159.697882,64.8260777 159.542339,64.6966311 C159.386795,64.566534 159.261315,64.4000097 159.166551,64.1970583 C159.072441,63.9941068 159.025386,63.7501748 159.025386,63.4652621 C159.025386,63.201165 159.100543,62.9565825 159.252165,62.7302136 C159.403787,62.5038447 159.64037,62.3067476 159.961913,62.1395728 C160.28411,61.9723981 160.698457,61.8377476 161.204953,61.7375728 C161.712102,61.6373981 162.321205,61.5788544 163.03226,61.5619417 L163.03226,60.9088544 C163.03226,60.3305728 162.90678,59.8856408 162.657126,59.5740583 C162.406165,59.2624757 162.035606,59.1063592 161.542835,59.1063592 C161.240244,59.1063592 160.982094,59.1479903 160.769693,59.2319029 C160.557291,59.315165 160.377567,59.407534 160.229866,59.5077087 C160.082819,59.608534 159.96322,59.7009029 159.870417,59.784165 C159.777614,59.8687282 159.699843,59.9103592 159.637102,59.9103592 C159.552795,59.9103592 159.489402,59.8719806 159.447575,59.7965243 L159.340394,59.6143883 C159.669126,59.2884951 160.013543,59.0406602 160.375606,58.8734854 C160.737016,58.7056602 161.147441,58.6223981 161.606228,58.6223981 C161.942803,58.6223981 162.237551,58.6757379 162.489819,58.7824175 C162.742087,58.8890971 162.950567,59.0419612 163.11722,59.2410097 C163.283874,59.4400583 163.408701,59.6807379 163.493008,59.9630485 C163.576661,60.2460097 163.619142,60.5614951 163.619142,60.9088544 L163.619142,64.9789417 L163.379291,64.9789417 L163.379291,64.9789417 Z M160.855307,64.6458932 C161.099079,64.6458932 161.323244,64.6198738 161.52715,64.5671845 C161.731055,64.5144951 161.920583,64.4416408 162.095079,64.3479709 C162.269575,64.2536505 162.432961,64.1411165 162.584583,64.0116699 C162.735551,63.8815728 162.885213,63.7417184 163.03226,63.5908058 L163.03226,61.9639417 C162.434268,61.9808544 161.920583,62.0257379 161.489244,62.0985922 C161.057906,62.1720971 160.702378,62.2716214 160.422661,62.397165 C160.142945,62.5227087 159.937079,62.6723204 159.803756,62.8466505 C159.67174,63.0203301 159.605079,63.2180777 159.605079,63.4405437 C159.605079,63.6493495 159.64037,63.830835 159.709646,63.983699 C159.778921,64.1365631 159.870417,64.2614563 159.984134,64.3603301 C160.09785,64.4585534 160.229866,64.5307573 160.382142,64.5762913 C160.533764,64.6224757 160.690614,64.6458932 160.855307,64.6458932 L160.855307,64.6458932 Z" id="Fill-32" fill="#6B818D" sketch:type="MSShapeGroup"></path>
            </g>
        </g>
    </g>
</svg>