<?xml version="1.0" encoding="UTF-8" standalone="no"?>
<svg width="175px" height="49px" viewBox="0 0 175 49" version="1.1" xmlns="http://www.w3.org/2000/svg" xmlns:xlink="http://www.w3.org/1999/xlink" xmlns:sketch="http://www.bohemiancoding.com/sketch/ns">
    <!-- Generator: Sketch 3.5.2 (25235) - http://www.bohemiancoding.com/sketch -->
    <title>Imported Layers</title>
    <desc>Created with Sketch.</desc>
    <defs></defs>
    <g id="Page-1" stroke="none" stroke-width="1" fill="none" fill-rule="evenodd" sketch:type="MSPage">
        <g id="Footer" sketch:type="MSArtboardGroup" transform="translate(-328.000000, -305.000000)" fill="#FFFFFF">
            <g sketch:type="MSLayerGroup" transform="translate(184.000000, 212.000000)" id="Imported-Layers">
                <path d="M264.052,93 C265.536,93 266.944,93.255 268.273,93.765 C269.603,94.275 270.761,94.961 271.747,95.826 C272.733,96.69 273.52,97.693 274.107,98.834 C274.694,99.976 275.01,101.167 275.055,102.408 C274.744,102.474 274.467,102.541 274.224,102.607 C273.714,102.718 273.315,102.774 273.027,102.774 C272.85,102.774 272.683,102.707 272.528,102.574 C272.373,102.441 272.263,102.253 272.196,102.009 C272.041,101.433 271.775,100.768 271.398,100.014 C271.021,99.261 270.512,98.552 269.869,97.887 C269.226,97.222 268.423,96.657 267.459,96.192 C266.495,95.726 265.359,95.493 264.052,95.493 C262.722,95.493 261.514,95.698 260.428,96.109 C259.342,96.519 258.412,97.095 257.636,97.837 C256.86,98.58 256.256,99.461 255.824,100.48 C255.392,101.499 255.176,102.619 255.176,103.837 C255.176,105.654 255.641,107.394 256.572,109.056 C257.503,110.718 258.943,112.503 260.893,114.408 L275.72,129.035 C276.717,127.439 277.509,125.777 278.097,124.048 C278.683,122.32 279.066,120.647 279.244,119.029 C279.287,118.741 279.376,118.514 279.509,118.347 C279.642,118.181 279.842,118.098 280.108,118.098 L281.936,118.098 C281.891,120.181 281.498,122.326 280.756,124.53 C280.013,126.736 278.955,128.847 277.581,130.863 L287.488,140.57 L284.529,140.57 C284.13,140.57 283.803,140.526 283.548,140.437 C283.293,140.349 283,140.149 282.667,139.839 L275.852,133.157 C274.855,134.31 273.758,135.373 272.561,136.348 C271.365,137.324 270.068,138.16 268.672,138.858 C267.276,139.556 265.786,140.105 264.201,140.504 C262.617,140.902 260.949,141.102 259.198,141.102 C257.536,141.102 255.896,140.824 254.278,140.271 C252.661,139.717 251.214,138.903 249.94,137.827 C248.665,136.753 247.635,135.434 246.849,133.872 C246.062,132.309 245.669,130.531 245.669,128.536 C245.669,126.94 245.956,125.417 246.533,123.965 C247.109,122.514 247.896,121.185 248.893,119.976 C249.891,118.769 251.076,117.688 252.45,116.735 C253.824,115.783 255.309,115.007 256.905,114.408 C255.33,112.635 254.151,110.913 253.364,109.239 C252.578,107.566 252.184,105.777 252.184,103.87 C252.184,102.319 252.467,100.884 253.032,99.566 C253.597,98.247 254.4,97.1 255.442,96.125 C256.483,95.15 257.73,94.385 259.181,93.831 C260.633,93.277 262.257,93 264.052,93 L264.052,93 Z M248.893,128.336 C248.893,130.044 249.22,131.528 249.874,132.791 C250.527,134.054 251.375,135.113 252.417,135.966 C253.458,136.819 254.616,137.457 255.891,137.877 C257.165,138.298 258.422,138.509 259.663,138.509 C261.215,138.509 262.683,138.332 264.068,137.977 C265.453,137.623 266.749,137.129 267.957,136.498 C269.165,135.866 270.273,135.118 271.282,134.254 C272.29,133.39 273.215,132.437 274.058,131.395 L258.799,116.403 C258.666,116.292 258.544,116.17 258.433,116.037 C256.971,116.658 255.646,117.4 254.461,118.264 C253.275,119.128 252.272,120.087 251.453,121.14 C250.633,122.193 250.001,123.329 249.558,124.547 C249.114,125.766 248.893,127.029 248.893,128.336 L248.893,128.336 Z M144.317,135.654 L149.698,135.654 L149.698,112.294 C149.698,111.344 149.192,110.901 148.306,110.901 L144,110.901 L144,107.356 L150.078,107.356 C152.737,107.356 153.94,108.495 153.94,110.901 L153.94,112.737 C153.94,114.003 153.686,115.016 153.686,115.016 L153.813,115.016 C155.459,110.711 160.587,106.596 165.652,106.596 C171.413,106.596 174.452,109.318 175.338,114.699 L175.465,114.699 C177.237,110.458 181.859,106.596 187.24,106.596 C194.901,106.596 197.749,111.091 197.749,118.941 L197.749,135.654 L203.131,135.654 L203.131,139.2 L193.444,139.2 L193.444,120.017 C193.444,114.826 192.368,110.521 186.607,110.521 C180.15,110.521 175.908,117.359 175.908,123.942 L175.908,135.654 L181.289,135.654 L181.289,139.2 L171.603,139.2 L171.603,120.017 C171.603,115.206 170.97,110.521 164.892,110.521 C158.372,110.521 154.003,117.422 154.003,124.069 L154.003,135.654 L159.384,135.654 L159.384,139.2 L144.317,139.2 L144.317,135.654 L144.317,135.654 Z M210.461,98.239 L204.764,98.239 L204.764,94.694 L214.766,94.694 L214.766,110.394 C214.766,111.914 214.577,113.053 214.577,113.053 L214.703,113.053 C214.703,113.053 217.489,106.596 225.592,106.596 C234.139,106.596 239.457,113.433 239.457,123.309 C239.457,133.376 233.442,139.96 225.086,139.96 C217.425,139.96 214.577,133.439 214.577,133.439 L214.45,133.439 C214.45,133.439 214.64,134.578 214.64,136.098 L214.64,139.2 L210.461,139.2 L210.461,98.239 L210.461,98.239 Z M224.769,136.098 C230.404,136.098 235.088,131.413 235.088,123.309 C235.088,115.523 230.91,110.521 224.959,110.521 C219.641,110.521 214.64,114.319 214.64,123.373 C214.64,129.767 217.995,136.098 224.769,136.098 L224.769,136.098 Z M306.3,106.596 C310.288,106.596 318.075,108.242 318.075,113.497 L318.075,116.979 L314.087,116.979 L314.087,114.636 C314.087,111.787 309.275,110.458 306.363,110.458 C299.399,110.458 294.081,115.523 294.081,123.246 C294.081,131.16 299.716,136.098 306.553,136.098 C312.757,136.098 316.429,132.173 316.999,131.73 L318.835,135.022 C318.139,135.654 313.77,139.96 306.426,139.96 C297.31,139.96 289.649,133.502 289.649,123.373 C289.649,113.433 297.12,106.596 306.3,106.596 L306.3,106.596 Z" sketch:type="MSShapeGroup"></path>
            </g>
        </g>
    </g>
</svg>