<?xml version="1.0" encoding="UTF-8" standalone="no"?>
<svg width="29px" height="24px" viewBox="0 0 29 24" version="1.1" xmlns="http://www.w3.org/2000/svg" xmlns:xlink="http://www.w3.org/1999/xlink" xmlns:sketch="http://www.bohemiancoding.com/sketch/ns">
    <!-- Generator: Sketch 3.5.2 (25235) - http://www.bohemiancoding.com/sketch -->
    <title>mail</title>
    <desc>Created with Sketch.</desc>
    <defs></defs>
    <g id="Svgs" stroke="none" stroke-width="1" fill="none" fill-rule="evenodd" sketch:type="MSPage">
        <g id="svgs" sketch:type="MSArtboardGroup" transform="translate(-164.000000, -528.000000)" fill="#FFFFFF">
            <g id="mail" sketch:type="MSLayerGroup" transform="translate(164.000000, 528.000000)">
                <path d="M24.6621367,24 L4.62966641,24 C2.62686077,24 0.995925926,22.3465479 0.995925926,20.3135966 L0.995925926,4.68248498 C0.995925926,2.6495337 2.62686077,0.996081589 4.62966641,0.996081589 L24.6621367,0.996081589 C26.6649424,0.996081589 28.2947738,2.6495337 28.2947738,4.68248498 L28.2947738,20.3135966 C28.2947738,22.3465479 26.6649424,24 24.6621367,24 L24.6621367,24 Z M4.62966641,2.11554815 C3.23487505,2.11554815 2.09940011,3.26635978 2.09940011,4.68248498 L2.09940011,20.3135966 C2.09940011,21.7297218 3.23487505,22.8805334 4.62966641,22.8805334 L24.6621367,22.8805334 C26.0558246,22.8805334 27.1912996,21.7297218 27.1912996,20.3135966 L27.1912996,4.68248498 C27.1912996,3.26635978 26.0558246,2.11554815 24.6621367,2.11554815 L4.62966641,2.11554815 L4.62966641,2.11554815 Z" id="Fill-1" sketch:type="MSShapeGroup"></path>
                <path d="M14.6447981,13.1478911 L1.26738058,5.16497507 L1.82794546,4.19887543 L14.6447981,11.8481905 L27.4627542,4.19887543 L28.0222156,5.16497507 L14.6447981,13.1478911" id="Fill-2" sketch:type="MSShapeGroup"></path>
            </g>
        </g>
    </g>
</svg>