<?xml version="1.0" encoding="UTF-8" standalone="no"?>
<svg width="50px" height="50px" viewBox="0 0 50 50" version="1.1" xmlns="http://www.w3.org/2000/svg" xmlns:xlink="http://www.w3.org/1999/xlink" xmlns:sketch="http://www.bohemiancoding.com/sketch/ns">
    <!-- Generator: Sketch 3.5.2 (25235) - http://www.bohemiancoding.com/sketch -->
    <title>map</title>
    <desc>Created with Sketch.</desc>
    <defs></defs>
    <g id="Svgs" stroke="none" stroke-width="1" fill="none" fill-rule="evenodd" sketch:type="MSPage">
        <g id="svgs" sketch:type="MSArtboardGroup" transform="translate(-388.000000, -29.000000)" fill="#D4D4D3">
            <path d="M413.041667,74.2416667 L399.198761,60.5833333 C397.719313,59.0277778 396.539696,57.2791667 395.681025,55.3708333 C394.591498,52.9722222 394.038288,50.4083333 394.038288,47.75 C394.038288,37.4125 402.563063,29 413.041667,29 C423.52027,29 432.045045,37.4125 432.045045,47.75 C432.045045,50.4083333 431.491836,52.9722222 430.402309,55.3736111 C429.543637,57.2791667 428.36402,59.0277778 426.900056,60.5666667 L413.041667,74.2416667 L413.041667,74.2416667 Z M413.041667,30.3888889 C403.338682,30.3888889 395.445946,38.1777778 395.445946,47.75 C395.445946,50.2111111 395.956926,52.5847222 396.966216,54.8055556 C397.76295,56.5736111 398.853885,58.1930556 400.209459,59.6180556 L413.041667,72.2777778 L425.889358,59.6013889 C427.229448,58.1930556 428.321791,56.5736111 429.115709,54.8069444 C430.126408,52.5847222 430.637387,50.2111111 430.637387,47.75 C430.637387,38.1777778 422.744651,30.3888889 413.041667,30.3888889 Z M437.917793,79 L388.165541,79 L392.660191,64.2166667 L394.008727,64.6166667 L390.057432,77.6111111 L436.025901,77.6111111 L432.074606,64.6166667 L433.423142,64.2166667 L437.917793,79 Z M413.041667,55.3888889 C408.772241,55.3888889 405.29955,51.9625 405.29955,47.75 C405.29955,43.5388889 408.772241,40.1111111 413.041667,40.1111111 C417.311092,40.1111111 420.783784,43.5388889 420.783784,47.75 C420.783784,51.9625 417.311092,55.3888889 413.041667,55.3888889 L413.041667,55.3888889 Z M413.041667,41.5 C409.549268,41.5 406.707207,44.3041667 406.707207,47.75 C406.707207,51.1972222 409.549268,54 413.041667,54 C416.534065,54 419.376126,51.1972222 419.376126,47.75 C419.376126,44.3041667 416.534065,41.5 413.041667,41.5 L413.041667,41.5 Z" id="map" sketch:type="MSShapeGroup"></path>
        </g>
    </g>
</svg>