<?xml version="1.0" encoding="UTF-8" standalone="no"?>
<svg width="53px" height="52px" viewBox="0 0 53 52" version="1.1" xmlns="http://www.w3.org/2000/svg" xmlns:xlink="http://www.w3.org/1999/xlink" xmlns:sketch="http://www.bohemiancoding.com/sketch/ns">
    <!-- Generator: Sketch 3.5.2 (25235) - http://www.bohemiancoding.com/sketch -->
    <title>mesothelioma</title>
    <desc>Created with Sketch.</desc>
    <defs></defs>
    <g id="Svgs" stroke="none" stroke-width="1" fill="none" fill-rule="evenodd" sketch:type="MSPage">
        <g id="svgs" sketch:type="MSArtboardGroup" transform="translate(-52.000000, -118.000000)">
            <g id="mesothelioma" sketch:type="MSLayerGroup" transform="translate(52.000000, 118.000000)">
                <path d="M19.8018521,14.7337842 C19.8018521,14.7337842 17.718513,5.02319246 11.6278317,11.6047396 C5.53715045,18.1858298 1.26639752,28.6680606 1.38152456,37.5768604 C1.49665161,46.4856601 6.44711463,50.2547677 11.3975776,50.7116292 C16.3480407,51.1684907 21.989266,50.4831984 22.5649012,39.4043065 C23.1405364,28.3254145 19.8018521,14.7337842 19.8018521,14.7337842" id="fill" fill="#FAA8B6" sketch:type="MSShapeGroup"></path>
                <path d="M33.3076362,14.7337842 C33.3076362,14.7337842 35.3914357,5.02319246 41.4816565,11.6047396 C47.5723378,18.1858298 51.8430907,28.6680606 51.7279637,37.5768604 C51.6128367,46.4856601 46.6623736,50.2547677 41.7119106,50.7116292 C36.7614476,51.1684907 31.1202223,50.4831984 30.5445871,39.4043065 C29.9689518,28.3254145 33.3076362,14.7337842 33.3076362,14.7337842" id="fill" fill="#FAA8B6" sketch:type="MSShapeGroup"></path>
                <path d="M42.1604456,10.9866059 C40.5735344,9.2724615 39.0377396,8.40305402 37.5963489,8.40305402 C34.8517201,8.40305402 33.4029614,11.4311322 32.7849594,13.2275117 C31.9380848,12.7816149 30.5763621,11.7660117 30.486563,9.80836007 C30.3368979,6.52306884 30.1734175,0.949815109 30.1720359,0.894078003 C30.1609837,0.515796661 29.8427726,0.215181778 29.4619323,0.228887624 C29.080171,0.239395439 28.7799197,0.555086752 28.7909719,0.933368094 C28.7923534,0.989562062 28.9562943,6.57378047 29.1068805,9.87095009 C29.2367438,12.7112582 31.3173198,14.0567154 32.4004351,14.5679434 C32.3207671,14.8950563 31.9307167,16.5287931 31.4609984,18.973916 C30.2475593,18.8158419 27.7815379,18.0821223 27.2459669,14.7406371 C27.192548,14.407585 26.9033488,14.1627073 26.5639543,14.1627073 L26.3364633,14.1627073 C25.9970687,14.1627073 25.7078696,14.407585 25.6544506,14.7406371 C25.1506547,17.8843012 22.9093613,18.7180735 21.6415823,18.9378239 C21.1741665,16.50595 20.7868791,14.8895739 20.7131978,14.5871316 C21.8303906,13.988643 23.6715024,12.6048095 23.793537,9.94039305 C23.9441232,6.64368029 24.1080641,1.02565412 24.1094457,0.969003293 C24.1204979,0.590721951 23.8202465,0.275487499 23.4384852,0.264979684 C23.0700787,0.241222885 22.7394338,0.552345583 22.7288421,0.930626925 C22.7270001,0.986820892 22.5635197,6.59570983 22.4138545,9.88100105 C22.330963,11.6842335 21.1723244,12.7153699 20.3254499,13.2334509 C19.7046848,11.4270204 18.2559261,8.40305402 15.5135998,8.40305402 C14.0717487,8.40305402 12.5359539,9.2724615 10.9490427,10.9866059 C4.55903106,17.891611 0.343999616,28.5817138 0.460508188,37.5882819 C0.585305906,47.2079582 6.1477843,51.1447339 11.3119231,51.6212405 C12.0694591,51.6915972 12.739959,51.7254049 13.3621056,51.7254049 L13.3625661,51.7254049 C19.743828,51.7254049 23.0553424,47.710049 23.484536,39.4513632 C23.8308382,32.7862104 22.8029839,25.327946 21.8990064,20.3212006 C23.2340196,20.0877444 25.3592649,19.3458012 26.4502088,16.9692076 C27.5927296,19.458646 29.8704031,20.2248028 31.1856145,20.4578022 C30.287163,25.4686594 29.2818736,32.850171 29.6249522,39.4513632 C30.0541458,47.7105058 33.3651997,51.7254049 39.7473827,51.7254049 C40.3695293,51.7254049 41.0400292,51.6915972 41.7975651,51.6212405 C46.9621645,51.1447339 52.5246429,47.2079582 52.6489801,37.5882819 C52.7654886,28.5817138 48.5504572,17.891611 42.1604456,10.9866059 L42.1604456,10.9866059 Z M21.6452663,39.3572497 C21.3744875,44.5695829 20.1780873,49.8979588 13.3621056,49.8979588 C12.7975225,49.8979588 12.1827441,49.8664354 11.4832322,49.8020179 C9.36397349,49.6060243 2.43931187,48.1458949 2.30254094,37.5654388 C2.19155846,28.9924323 6.21179494,18.8076184 12.3066208,12.2224164 C13.5122312,10.9189904 14.621135,10.2305001 15.5135998,10.2305001 C17.4574049,10.2305001 18.618346,13.6194989 18.9070847,14.9503365 C18.9402412,15.0851107 22.2070863,28.5433375 21.6452663,39.3572497 L21.6452663,39.3572497 Z M41.6267166,49.8020179 C40.9267442,49.8664354 40.3119657,49.8979588 39.7473827,49.8979588 C35.9224017,49.8979588 31.9468345,48.6457014 31.4642219,39.3572497 C30.9024019,28.5433375 34.169247,15.0851107 34.2083902,14.9238386 C34.4699589,13.7063026 35.6530044,10.2305001 37.5963489,10.2305001 C38.4883533,10.2305001 39.597257,10.9189904 40.803328,12.2224164 C46.8976933,18.8076184 50.9179298,28.9924323 50.8069473,37.5654388 C50.6701764,48.1458949 43.7455148,49.6060243 41.6267166,49.8020179 L41.6267166,49.8020179 Z" id="outline" fill="#F57E7E" sketch:type="MSShapeGroup"></path>
            </g>
        </g>
    </g>
</svg>