<?xml version="1.0" encoding="UTF-8" standalone="no"?>
<svg width="30px" height="49px" viewBox="0 0 30 49" version="1.1" xmlns="http://www.w3.org/2000/svg" xmlns:xlink="http://www.w3.org/1999/xlink" xmlns:sketch="http://www.bohemiancoding.com/sketch/ns">
    <!-- Generator: Sketch 3.5.2 (25235) - http://www.bohemiancoding.com/sketch -->
    <title>phone-round</title>
    <desc>Created with Sketch.</desc>
    <defs></defs>
    <g id="Svgs" stroke="none" stroke-width="1" fill="none" fill-rule="evenodd" sketch:type="MSPage">
        <g id="svgs" sketch:type="MSArtboardGroup" transform="translate(-248.000000, -202.000000)" fill="#D4D4D3">
            <path d="M271.472039,250.814516 L254.483553,250.814516 C250.907895,250.814516 248,247.96129 248,244.454839 L248,208.359677 C248,204.853226 250.907895,202 254.483553,202 L271.472039,202 C275.047697,202 277.955592,204.853226 277.955592,208.359677 L277.955592,244.454839 C277.955592,247.96129 275.047697,250.814516 271.472039,250.814516 L271.472039,250.814516 Z M254.483553,203.612903 C251.815789,203.612903 249.644737,205.743548 249.644737,208.359677 L249.644737,244.454839 C249.644737,247.072581 251.815789,249.201613 254.483553,249.201613 L271.472039,249.201613 C274.139803,249.201613 276.310855,247.072581 276.310855,244.454839 L276.310855,208.359677 C276.310855,205.743548 274.139803,203.612903 271.472039,203.612903 L254.483553,203.612903 L254.483553,203.612903 Z M262.978618,246.65 C261.743421,246.65 260.740132,245.664516 260.740132,244.454839 C260.740132,243.245161 261.743421,242.259677 262.978618,242.259677 C264.212171,242.259677 265.215461,243.245161 265.215461,244.454839 C265.215461,245.664516 264.212171,246.65 262.978618,246.65 L262.978618,246.65 Z M262.978618,243.872581 C262.651316,243.872581 262.384868,244.133871 262.384868,244.454839 C262.384868,244.775806 262.651316,245.037097 262.978618,245.037097 C263.304276,245.037097 263.570724,244.775806 263.570724,244.454839 C263.570724,244.133871 263.304276,243.872581 262.978618,243.872581 L262.978618,243.872581 Z M260.146382,207.779032 L265.807566,207.779032 L265.807566,206.166129 L260.146382,206.166129 L260.146382,207.779032 Z" id="phone-round" sketch:type="MSShapeGroup"></path>
        </g>
    </g>
</svg>