<?xml version="1.0" encoding="UTF-8" standalone="no"?>
<svg width="69px" height="60px" viewBox="0 0 69 60" version="1.1" xmlns="http://www.w3.org/2000/svg" xmlns:xlink="http://www.w3.org/1999/xlink" xmlns:sketch="http://www.bohemiancoding.com/sketch/ns">
    <!-- Generator: Sketch 3.5.2 (25235) - http://www.bohemiancoding.com/sketch -->
    <title>product-liability</title>
    <desc>Created with Sketch.</desc>
    <defs></defs>
    <g id="Svgs" stroke="none" stroke-width="1" fill="none" fill-rule="evenodd" sketch:type="MSPage">
        <g id="svgs" sketch:type="MSArtboardGroup" transform="translate(-344.000000, -109.000000)">
            <g id="product-liability" sketch:type="MSLayerGroup" transform="translate(344.000000, 109.000000)">
                <path d="M20.2461,34.8536 C17.9961,34.8536 16.1731,36.6776 16.1731,38.9266 C16.1731,41.1766 17.9961,42.9996 20.2461,42.9996 C22.4961,42.9996 24.3191,41.1766 24.3191,38.9266 C24.3191,36.6776 22.4961,34.8536 20.2461,34.8536" id="outline" fill="#FFFFFF" sketch:type="MSShapeGroup"></path>
                <path d="M39.4223,32.8896 C36.8853,25.4216 30.1153,19.9036 21.9753,19.2146 L21.9753,16.8896 L43.9753,16.8896 L43.9753,32.8896 L39.4223,32.8896 Z M20.2543,57.6356 C10.1883,57.6356 2.0003,49.4476 2.0003,39.3816 C2.0003,29.3166 10.1883,21.1266 20.2543,21.1266 C30.3193,21.1266 38.5083,29.3166 38.5083,39.3816 C38.5083,49.4476 30.3193,57.6356 20.2543,57.6356 L20.2543,57.6356 Z M48.3193,54.9266 C48.3193,56.6206 46.9403,57.9996 45.2463,57.9996 C43.5513,57.9996 42.1733,56.6206 42.1733,54.9266 C42.1733,53.2326 43.5513,51.8536 45.2463,51.8536 C46.9403,51.8536 48.3193,53.2326 48.3193,54.9266 L48.3193,54.9266 Z M67.1433,42.9326 L62.2883,47.7876 L47.6823,33.1826 C47.4953,32.9946 47.2413,32.8896 46.9753,32.8896 L45.9753,32.8896 L45.9753,16.8896 L46.9753,16.8896 C47.5283,16.8896 47.9753,16.4426 47.9753,15.8896 C47.9753,15.3366 47.5283,14.8896 46.9753,14.8896 L21.9753,14.8896 L21.9753,8.0566 C21.9753,5.8496 21.3173,4.0906 20.0193,2.8276 C17.9643,0.8276 15.0693,0.8926 14.9753,0.8896 L9.9753,0.8896 C9.4233,0.8896 8.9753,1.3366 8.9753,1.8896 C8.9753,2.4426 9.4233,2.8896 9.9753,2.8896 L14.9993,2.8896 C15.0233,2.8946 17.1953,2.8596 18.6373,4.2736 C19.5253,5.1446 19.9753,6.4166 19.9753,8.0566 L19.9753,19.1406 C8.9363,19.2916 0.0003,28.3066 0.0003,39.3816 C0.0003,50.5496 9.0863,59.6356 20.2543,59.6356 C31.4233,59.6356 40.5083,50.5496 40.5083,39.3816 C40.5083,37.8366 40.3193,36.3366 39.9893,34.8896 L43.9753,34.8896 L43.9753,49.8896 C41.8083,50.5836 40.1733,52.5596 40.1733,54.9266 C40.1733,57.7246 42.4483,59.9996 45.2463,59.9996 C48.0443,59.9996 50.3193,57.7246 50.3193,54.9266 C50.3193,52.3766 48.4223,50.2806 45.9683,49.9266 C45.9683,49.9136 45.9753,34.8896 45.9753,34.8896 L46.5613,34.8896 L61.5813,49.9096 C61.7763,50.1046 62.0323,50.2016 62.2883,50.2016 C62.5443,50.2016 62.8003,50.1046 62.9953,49.9096 L68.5573,44.3466 C68.9483,43.9556 68.9483,43.3236 68.5573,42.9326 C68.1673,42.5416 67.5343,42.5416 67.1433,42.9326 Z" id="outline" fill="#FFFFFF" sketch:type="MSShapeGroup"></path>
                <path d="M39.4223,32.8896 C36.8853,25.4216 30.1153,19.9036 21.9753,19.2146 L21.9753,16.8896 L43.9753,16.8896 L43.9753,32.8896 L39.4223,32.8896 Z" id="fill" fill="#75899B" sketch:type="MSShapeGroup"></path>
            </g>
        </g>
    </g>
</svg>