<?xml version="1.0" encoding="UTF-8" standalone="no"?>
<svg width="44px" height="44px" viewBox="0 0 44 44" version="1.1" xmlns="http://www.w3.org/2000/svg" xmlns:xlink="http://www.w3.org/1999/xlink" xmlns:sketch="http://www.bohemiancoding.com/sketch/ns">
    <!-- Generator: Sketch 3.5.2 (25235) - http://www.bohemiancoding.com/sketch -->
    <title>twitter</title>
    <desc>Created with Sketch.</desc>
    <defs></defs>
    <g id="Svgs" stroke="none" stroke-width="1" fill="none" fill-rule="evenodd" sketch:type="MSPage">
        <g id="svgs" sketch:type="MSArtboardGroup" transform="translate(-220.000000, -280.000000)">
            <g id="twitter" sketch:type="MSLayerGroup" transform="translate(221.000000, 280.000000)">
                <path d="M32.478,14.879 C31.65,15.244 30.765,15.492 29.832,15.604 C30.782,15.033 31.513,14.131 31.857,13.056 C30.967,13.582 29.981,13.965 28.931,14.171 C28.092,13.276 26.896,12.717 25.569,12.717 C23.026,12.717 20.963,14.778 20.963,17.321 C20.963,17.683 21.005,18.036 21.082,18.373 C17.254,18.18 13.859,16.347 11.587,13.562 C11.188,14.24 10.964,15.032 10.964,15.878 C10.964,17.478 11.777,18.885 13.013,19.712 C12.258,19.688 11.546,19.48 10.926,19.137 L10.926,19.193 C10.926,21.424 12.512,23.288 14.621,23.712 C14.233,23.816 13.827,23.872 13.407,23.872 C13.112,23.872 12.823,23.844 12.541,23.79 C13.128,25.62 14.829,26.952 16.845,26.99 C15.268,28.225 13.28,28.96 11.124,28.96 C10.752,28.96 10.385,28.939 10.025,28.897 C12.064,30.202 14.485,30.966 17.087,30.966 C25.56,30.966 30.194,23.949 30.194,17.861 C30.194,17.66 30.189,17.462 30.18,17.264 C31.078,16.615 31.861,15.805 32.479,14.879 L32.478,14.879" id="Fill-7" fill="#FFFFFF" sketch:type="MSShapeGroup"></path>
                <path d="M42.168,21.842 C42.168,33.394 32.804,42.758 21.252,42.758 C9.7,42.758 0.335,33.394 0.335,21.842 C0.335,10.29 9.7,0.925 21.252,0.925 C32.804,0.925 42.168,10.29 42.168,21.842 L42.168,21.842 Z" id="Stroke-8" stroke="#FFFFFF" sketch:type="MSShapeGroup"></path>
            </g>
        </g>
    </g>
</svg>