<?xml version="1.0" encoding="UTF-8" standalone="no"?>
<svg width="44px" height="44px" viewBox="0 0 44 44" version="1.1" xmlns="http://www.w3.org/2000/svg" xmlns:xlink="http://www.w3.org/1999/xlink" xmlns:sketch="http://www.bohemiancoding.com/sketch/ns">
    <!-- Generator: Sketch 3.5.2 (25235) - http://www.bohemiancoding.com/sketch -->
    <title>yelp</title>
    <desc>Created with Sketch.</desc>
    <defs></defs>
    <g id="Svgs" stroke="none" stroke-width="1" fill="none" fill-rule="evenodd" sketch:type="MSPage">
        <g id="svgs" sketch:type="MSArtboardGroup" transform="translate(-330.000000, -280.000000)">
            <g id="yelp" sketch:type="MSLayerGroup" transform="translate(330.000000, 280.000000)">
                <path d="M31.797,28.785 C31.639,29.865 29.432,32.67 28.419,33.074 C28.073,33.213 27.737,33.18 27.473,32.974 C27.3,32.84 27.121,32.566 24.742,28.707 L24.036,27.556 C23.765,27.143 23.815,26.6 24.153,26.185 C24.483,25.784 24.968,25.633 25.391,25.795 C25.414,25.809 27.172,26.387 27.172,26.387 C31.171,27.702 31.302,27.752 31.472,27.879 C31.73,28.086 31.845,28.409 31.795,28.785 L31.797,28.785 L31.797,28.785 Z M23.779,22.912 C23.494,22.483 23.499,21.976 23.79,21.625 L24.904,20.11 C27.34,16.782 27.471,16.607 27.646,16.491 C27.931,16.301 28.27,16.291 28.611,16.454 C29.578,16.926 31.534,19.832 31.651,20.948 L31.651,20.986 C31.675,21.366 31.534,21.675 31.262,21.861 C31.081,21.978 30.907,22.038 26.357,23.14 C25.626,23.314 25.223,23.412 24.999,23.496 L25.024,23.458 C24.57,23.585 24.071,23.366 23.779,22.916 L23.779,22.912 L23.779,22.912 Z M20.986,21.19 C20.769,21.257 20.107,21.463 19.292,20.145 C19.292,20.145 13.794,11.493 13.665,11.227 C13.587,10.926 13.682,10.587 13.95,10.311 C14.769,9.463 19.209,8.221 20.371,8.505 C20.75,8.602 21.011,8.839 21.103,9.179 C21.17,9.552 21.71,17.58 21.789,19.379 C21.862,20.918 21.203,21.125 20.986,21.19 L20.986,21.19 Z M21.712,29.989 C21.7,34.198 21.692,34.337 21.622,34.537 C21.505,34.852 21.237,35.059 20.862,35.128 C19.792,35.312 16.44,34.074 15.741,33.245 C15.6,33.072 15.517,32.885 15.498,32.698 C15.481,32.564 15.501,32.435 15.548,32.313 C15.62,32.101 15.746,31.937 18.762,28.397 L19.642,27.357 C19.943,26.981 20.478,26.862 20.974,27.056 C21.459,27.24 21.754,27.658 21.724,28.109 L21.714,29.989 L21.712,29.989 L21.712,29.989 Z M12.589,27.298 C12.259,27.287 11.965,27.09 11.793,26.76 C11.667,26.523 11.58,26.125 11.525,25.645 C11.375,24.193 11.558,22.006 11.993,21.31 C12.197,20.993 12.495,20.826 12.824,20.837 C13.042,20.841 13.236,20.911 17.54,22.687 L18.799,23.197 C19.25,23.367 19.53,23.839 19.501,24.374 C19.468,24.896 19.17,25.302 18.727,25.416 C18.719,25.421 16.938,25.988 16.938,25.988 C12.935,27.275 12.802,27.312 12.59,27.302 L12.589,27.298 L12.589,27.298 Z M29.287,35.216 L29.283,35.216 L29.277,35.22 L29.287,35.216 L29.287,35.216 Z" id="Fill-5" fill="#FFFFFF" sketch:type="MSShapeGroup"></path>
                <path d="M42.556,21.842 C42.556,33.394 33.192,42.758 21.64,42.758 C10.088,42.758 0.723,33.394 0.723,21.842 C0.723,10.29 10.088,0.925 21.64,0.925 C33.192,0.925 42.556,10.29 42.556,21.842 L42.556,21.842 Z" id="Stroke-6" stroke="#FFFFFF" sketch:type="MSShapeGroup"></path>
            </g>
        </g>
    </g>
</svg>