<?xml version="1.0" encoding="UTF-8" standalone="no"?>
<svg width="44px" height="44px" viewBox="0 0 44 44" version="1.1" xmlns="http://www.w3.org/2000/svg" xmlns:xlink="http://www.w3.org/1999/xlink" xmlns:sketch="http://www.bohemiancoding.com/sketch/ns">
    <!-- Generator: Sketch 3.5.2 (25235) - http://www.bohemiancoding.com/sketch -->
    <title>youtube</title>
    <desc>Created with Sketch.</desc>
    <defs></defs>
    <g id="Svgs" stroke="none" stroke-width="1" fill="none" fill-rule="evenodd" sketch:type="MSPage">
        <g id="svgs" sketch:type="MSArtboardGroup" transform="translate(-276.000000, -280.000000)">
            <g id="youtube" sketch:type="MSLayerGroup" transform="translate(277.000000, 280.000000)">
                <path d="M18.874,24.445 L18.874,18.807 L24.296,21.635 L18.875,24.445 L18.874,24.445 L18.874,24.445 Z M30.779,17.829 C30.779,17.829 30.583,16.447 29.981,15.838 C29.218,15.04 28.363,15.036 27.97,14.988 C25.164,14.785 20.952,14.785 20.952,14.785 L20.942,14.785 C20.942,14.785 16.731,14.785 13.923,14.988 C13.529,15.036 12.673,15.038 11.911,15.838 C11.309,16.447 11.113,17.829 11.113,17.829 C11.113,17.829 10.913,19.456 10.913,21.077 L10.913,22.601 C10.913,24.224 11.113,25.849 11.113,25.849 C11.113,25.849 11.309,27.229 11.911,27.84 C12.673,28.639 13.677,28.613 14.123,28.698 C15.728,28.852 20.946,28.898 20.946,28.898 C20.946,28.898 25.162,28.893 27.969,28.69 C28.363,28.642 29.218,28.64 29.981,27.84 C30.583,27.23 30.779,25.848 30.779,25.848 C30.779,25.848 30.979,24.225 30.979,22.6 L30.979,21.077 C30.979,19.454 30.779,17.829 30.779,17.829 L30.779,17.829 Z" id="Fill-11" fill="#FFFFFF" sketch:type="MSShapeGroup"></path>
                <path d="M41.862,21.842 C41.862,33.394 32.498,42.758 20.946,42.758 C9.394,42.758 0.029,33.394 0.029,21.842 C0.029,10.29 9.394,0.925 20.946,0.925 C32.498,0.925 41.862,10.29 41.862,21.842 L41.862,21.842 Z" id="Stroke-12" stroke="#FFFFFF" sketch:type="MSShapeGroup"></path>
            </g>
        </g>
    </g>
</svg>